<?xml version="1.0" encoding="UTF-8"?>
<svg id="Capa_2" data-name="Capa 2" xmlns="http://www.w3.org/2000/svg" viewBox="0 0 387.78 239.92">
  <defs>
    <style>
      .cls-1, .cls-2, .cls-3, .cls-4, .cls-5, .cls-6, .cls-7 {
        fill: #fff;
      }

      .cls-8, .cls-5 {
        opacity: .5;
      }

      .cls-2, .cls-9 {
        opacity: .4;
      }

      .cls-10 {
        fill: #ba4d3c;
      }

      .cls-11 {
        fill: #f5f5f5;
      }

      .cls-3, .cls-12 {
        opacity: .3;
      }

      .cls-13, .cls-4, .cls-14, .cls-15 {
        opacity: .1;
      }

      .cls-13, .cls-16 {
        fill: #263238;
      }

      .cls-17 {
        fill: #ebb376;
      }

      .cls-18, .cls-7 {
        opacity: .2;
      }

      .cls-6 {
        opacity: .8;
      }

      .cls-19 {
        fill: #ce7a63;
      }

      .cls-20 {
        fill: #b55b52;
      }

      .cls-21 {
        fill: #407bff;
      }

      .cls-22 {
        fill: #2e353a;
      }

      .cls-23 {
        fill: #7f3e3b;
      }

      .cls-15 {
        isolation: isolate;
      }

      .cls-24 {
        fill: #630f0f;
      }

      .cls-25 {
        fill: #a02724;
      }
    </style>
  </defs>
  <g id="Shadow">
    <ellipse id="_Path_" data-name="&amp;lt;Path&amp;gt;" class="cls-11" cx="193.89" cy="228.59" rx="193.89" ry="11.32"/>
  </g>
  <g id="Character_3" data-name="Character 3">
    <g>
      <g>
        <path class="cls-16" d="m279.01,156.43h-12.02c-6.69,0-11.81-5.96-10.79-12.58l3.49-22.74c.88-5.75,6.11-9.8,11.9-9.21l7.43.76v43.77Z"/>
        <path class="cls-5" d="m279.01,156.43h-12.02c-6.69,0-11.81-5.96-10.79-12.58l3.49-22.74c.88-5.75,6.11-9.8,11.9-9.21l7.43.76v43.77Z"/>
        <path class="cls-21" d="m256.54,148.68c1.35,4.43,5.46,7.75,10.45,7.75h12.02v-13.53c-10.36-.16-18.54,3.56-22.47,5.79Z"/>
        <path class="cls-12" d="m256.54,148.68c1.35,4.43,5.46,7.75,10.45,7.75h12.02v-13.53c-10.36-.16-18.54,3.56-22.47,5.79Z"/>
        <path class="cls-21" d="m256.78,135.63s-4.57,9.87-2.03,11.96c2.54,2.09,9.42,1.07,9.98,0s0-11.96,0-11.96h-7.95Z"/>
        <path class="cls-8" d="m264.74,135.63h-.16c-1.1,2.4-3.02,7.18-2.49,10.33.4,2.39,1.66,2.14,2.72,1.44.45-1.78-.06-11.77-.06-11.77Z"/>
        <g>
          <path class="cls-21" d="m257.04,135h7.95s-.36,3.17-4.79,3.19c-6.19.03-3.16-3.19-3.16-3.19Z"/>
          <path class="cls-3" d="m257.04,135h7.95s-.36,3.17-4.79,3.19c-6.19.03-3.16-3.19-3.16-3.19Z"/>
        </g>
        <path class="cls-21" d="m260.19,136.78c-.08.39-.47.71-.85.71s-.64-.32-.56-.71c.08-.39.47-.71.85-.71s.64.32.56.71Z"/>
      </g>
      <g>
        <g>
          <path class="cls-19" d="m317.68,222.21c-4.3.96-8.52-2-8.94-1.85l-1.79-11.6-6.71.83s2.69,9.47,3.08,12.71c.17,1.39.01,5.59.01,5.59.05.44.45.76.89.7.06,0,.11-.02.17-.04,2.02-.77,3.79-1.53,6.33-2.44,2.99-1.08,2.36-.44,5.9-1.66,2.13-.73,2-2.45,1.06-2.25Z"/>
          <path class="cls-16" d="m318.66,223.42c-2.04.7-4.08,1.4-6.12,2.09.4-1.41,1.65-2.48,3-3.02.49-.19.17-.94-.31-.75-1.73.69-3.31,2.18-3.57,4.08-1.22.42-2.44.83-3.66,1.25.72-2.3,2.4-4.42,4.77-5.13.5-.15.18-.9-.31-.75-2.8.84-4.69,3.48-5.39,6.2-1.16.4-2.32.79-3.48,1.19-.66.23-.24,1.22.42,1,5.03-1.72,10.05-3.44,15.08-5.16.66-.23.24-1.22-.42-1Z"/>
        </g>
        <path class="cls-16" d="m301.14,148.56l7.93,67.3-7.57,1.84-15.94-57.6s-8.63-4.91-8.48-13.2l24.06,1.66Z"/>
        <path class="cls-8" d="m285.56,160.1l2.43,8.77c1.83-10.63.49-16.16.49-16.16l-5.46,5.56c1.42,1.2,2.54,1.84,2.54,1.84Z"/>
        <polygon class="cls-16" points="309.46 213.52 309.85 216.92 301.14 219.12 300.13 215.98 309.46 213.52"/>
      </g>
      <g>
        <g>
          <path class="cls-19" d="m275.05,227.03c-4.34-.77-7.09-5.13-7.54-5.15l2.82-11.39-6.51-1.82s-1.17,9.77-2.06,12.92c-.38,1.34-2.14,5.16-2.14,5.16-.12.43.13.87.55.99.05.02.11.03.17.03,2.16.07,4.09.05,6.78.19,3.18.16,2.35.5,6.08.74,2.25.14,2.79-1.49,1.84-1.66Z"/>
          <path class="cls-16" d="m275.49,228.52c-2.15-.14-4.3-.28-6.46-.43.91-1.15,2.47-1.65,3.93-1.63.52,0,.52-.8,0-.81-1.87-.03-3.89.74-4.87,2.38-1.29-.08-2.57-.17-3.86-.26,1.55-1.84,3.91-3.15,6.38-2.9.52.05.52-.76,0-.81-2.91-.3-5.67,1.4-7.36,3.64-1.22-.08-2.45-.16-3.67-.24-.7-.05-.69,1.04,0,1.08,5.3.35,10.6.7,15.9,1.05.7.05.69-1.04,0-1.08Z"/>
        </g>
        <path class="cls-16" d="m289.84,147.81s-.8,6.4-2.62,13.66c-3.74,14.99-18.16,56.23-18.16,56.23l-7.37-1.13s2.76-21.13,4.96-30.01c.18-.74.3-1.48.34-2.24.19-3.66.85-15.05,1.83-22.04.27-1.92.17-3.87-.32-5.75-.68-2.63-1.4-6.78-.52-10.58l21.85,1.85Z"/>
        <polygon class="cls-16" points="260.92 214.44 270.33 215.95 269.39 218.82 260.85 217.47 260.92 214.44"/>
      </g>
      <g>
        <polygon class="cls-19" points="314.6 133.28 320.2 140.88 324.94 143.06 325.91 145.47 320.98 148.93 318.35 147.88 317.25 143.66 310.6 136.06 314.6 133.28"/>
        <path class="cls-21" d="m299.18,103.13c.2-.33.65-.39.9-.11,1.05,1.17,3.62,4.5,5.43,10.75,2.82,9.73,13.19,24.14,13.19,24.14l-4.51,3.46s-7-6.85-11.84-16.55c-4.03-8.09-5.48-17.78-3.17-21.69Z"/>
      </g>
      <g>
        <path class="cls-17" d="m318.62,175.32s-7.09,8.46-4.84,11.13c2.25,2.67,7.41-9.77,7.41-9.77l-2.57-1.36Z"/>
        <path class="cls-14" d="m317.01,177.41c.36.45.86.88,1.57,1.12.58.19,1.09.38,1.54.54.65-1.38,1.07-2.4,1.07-2.4l-2.57-1.36s-.71.85-1.61,2.09Z"/>
        <g>
          <path class="cls-17" d="m326.23,179.23l3.52.21s4.07,10.78.84,10.92-4.36-11.14-4.36-11.14Z"/>
          <path class="cls-19" d="m330.99,183.32c-.65.45-1.47,1.11-1.84,1.86,0,0,1.15-.72,2.06-1.01-.07-.29-.15-.58-.22-.86Z"/>
          <path class="cls-14" d="m329.75,179.44l-3.52-.21s.09.88.29,2.15c1.03.29,2.68.58,3.89-.02-.37-1.14-.66-1.92-.66-1.92Z"/>
        </g>
        <g>
          <path class="cls-17" d="m323.7,163.26s-8.58-17.19-2.71-19.49,4.9,19.56,4.9,19.56l-2.19-.07Z"/>
          <path class="cls-14" d="m323.7,163.26l2.19.07s.26-5.99-.32-11.36c-1.14,1.3-2.62,3.84-2.33,8.08l-.69.7c.66,1.52,1.16,2.51,1.16,2.51Z"/>
        </g>
        <g>
          <path class="cls-17" d="m330.94,166.63s14.34,12.48,10.94,14.69-12.28-12-12.28-12l1.34-2.69Z"/>
          <g>
            <path class="cls-16" d="m337.94,173.99l-.48-.42c.18-.03.36-.06.54-.08.31-.02.3-.5,0-.48-.34.03-.66.09-.97.18-.2-.17-.4-.35-.6-.52-.23-.2-.57.14-.34.34.14.12.27.24.41.36-.28.11-.55.24-.8.39-.2-.17-.4-.33-.6-.5-.23-.2-.57.14-.34.34.17.15.35.29.53.44-.23.17-.45.35-.65.55-.16-.21-.32-.42-.48-.64-.18-.24-.6,0-.41.24.19.25.38.5.57.75-.16.18-.31.38-.45.58-.18.25.24.49.41.24.1-.15.22-.3.33-.44.07.09.13.18.2.26.18.24.6,0,.41-.24-.1-.13-.19-.25-.29-.38.23-.23.48-.44.74-.62.13.11.27.22.4.34.24.2.57-.14.34-.34-.1-.09-.21-.17-.31-.26.26-.14.53-.27.81-.36.23.2.47.41.7.61.23.2.57-.14.34-.34Z"/>
            <path class="cls-3" d="m337.94,173.99l-.48-.42c.18-.03.36-.06.54-.08.31-.02.3-.5,0-.48-.34.03-.66.09-.97.18-.2-.17-.4-.35-.6-.52-.23-.2-.57.14-.34.34.14.12.27.24.41.36-.28.11-.55.24-.8.39-.2-.17-.4-.33-.6-.5-.23-.2-.57.14-.34.34.17.15.35.29.53.44-.23.17-.45.35-.65.55-.16-.21-.32-.42-.48-.64-.18-.24-.6,0-.41.24.19.25.38.5.57.75-.16.18-.31.38-.45.58-.18.25.24.49.41.24.1-.15.22-.3.33-.44.07.09.13.18.2.26.18.24.6,0,.41-.24-.1-.13-.19-.25-.29-.38.23-.23.48-.44.74-.62.13.11.27.22.4.34.24.2.57-.14.34-.34-.1-.09-.21-.17-.31-.26.26-.14.53-.27.81-.36.23.2.47.41.7.61.23.2.57-.14.34-.34Z"/>
          </g>
          <path class="cls-14" d="m332.89,168.39c-1.16-1.08-1.95-1.76-1.95-1.76l-1.34,2.69s1.04,1.65,2.53,3.74c.08-1.97.51-3.76.76-4.67Z"/>
        </g>
        <path class="cls-17" d="m324.88,161.2c-2.74,2.33-8.38,7.97-7.48,14.29.13.94.81,1.72,1.71,2.04l8.37,2.94c1.73.61,3.51-.72,3.44-2.55-.15-3.54-.05-8.69,1.43-11.83.56-1.2.04-2.62-1.11-3.27l-3.41-1.91c-.95-.53-2.11-.41-2.94.29Z"/>
        <g>
          <polygon class="cls-16" points="322.09 168.06 324.5 167.22 328.47 173.69 325.91 175 322.09 168.06"/>
          <polygon class="cls-6" points="322.09 168.06 324.5 167.22 328.47 173.69 325.91 175 322.09 168.06"/>
        </g>
        <g>
          <path class="cls-16" d="m318.56,182.4c-.17-.19-.36-.35-.55-.5.07-.14.14-.28.21-.42.14-.27-.28-.51-.41-.24-.06.12-.13.25-.19.37-.2-.12-.4-.23-.62-.32.08-.16.16-.32.24-.48.14-.27-.28-.51-.41-.24-.09.18-.18.37-.28.55-.27-.09-.56-.14-.84-.18.1-.2.2-.4.3-.6.14-.27-.28-.51-.41-.24-.13.27-.27.53-.4.8-.29-.01-.59-.01-.9.02-.3.03-.3.51,0,.48.22-.02.44-.03.65-.03-.01.03-.03.06-.04.09-.14.27.28.51.41.24.05-.1.1-.2.15-.3.29.03.58.09.85.17l-.19.37c-.14.27.28.51.42.24.07-.15.15-.29.22-.44.21.09.42.19.62.32-.09.18-.18.37-.28.55-.14.27.28.51.41.24.08-.17.17-.33.25-.5.15.12.29.26.43.41.21.23.54-.11.34-.34Z"/>
          <path class="cls-3" d="m318.56,182.4c-.17-.19-.36-.35-.55-.5.07-.14.14-.28.21-.42.14-.27-.28-.51-.41-.24-.06.12-.13.25-.19.37-.2-.12-.4-.23-.62-.32.08-.16.16-.32.24-.48.14-.27-.28-.51-.41-.24-.09.18-.18.37-.28.55-.27-.09-.56-.14-.84-.18.1-.2.2-.4.3-.6.14-.27-.28-.51-.41-.24-.13.27-.27.53-.4.8-.29-.01-.59-.01-.9.02-.3.03-.3.51,0,.48.22-.02.44-.03.65-.03-.01.03-.03.06-.04.09-.14.27.28.51.41.24.05-.1.1-.2.15-.3.29.03.58.09.85.17l-.19.37c-.14.27.28.51.42.24.07-.15.15-.29.22-.44.21.09.42.19.62.32-.09.18-.18.37-.28.55-.14.27.28.51.41.24.08-.17.17-.33.25-.5.15.12.29.26.43.41.21.23.54-.11.34-.34Z"/>
        </g>
        <path class="cls-17" d="m318.37,170.06l-.02-2.59s.98,2.36,1.45,2.07c0,0-.65,1.05-.02,1.45,0,0,.12,1.32,1.17,1.5,0,0,.34,1.16,1.11,1.53,0,0-2.43-.23-2.43.09,0,0-1.01-1.13-1.36-.81,0,0-1.12-1.25-1.68-.98l1.58-.78.2-1.48Z"/>
        <path class="cls-18" d="m318.37,170.06l-.02-2.59s.98,2.36,1.45,2.07c0,0-.65,1.05-.02,1.45,0,0,.12,1.32,1.17,1.5,0,0,.34,1.16,1.11,1.53,0,0-2.43-.23-2.43.09,0,0-1.01-1.13-1.36-.81,0,0-1.12-1.25-1.68-.98l1.58-.78.2-1.48Z"/>
        <g>
          <path class="cls-17" d="m336.99,159.29s8.59-3.61,9.37-1.05c.78,2.57-7.5,3.77-7.5,3.77l-1.87-2.72Z"/>
          <path class="cls-14" d="m342.04,157.65c-2.46.56-5.05,1.64-5.05,1.64l1.87,2.72s1.84-.27,3.71-.82c.03-.98-.07-2.2-.53-3.54Z"/>
        </g>
        <g>
          <path class="cls-17" d="m329.72,153.79s3.9-7.94,6.06-6.59c2.16,1.35-3.03,7.38-3.03,7.38l-3.03-.78Z"/>
          <path class="cls-14" d="m335.32,150.99c-1.32-.43-2.59-.6-3.61-.65-1.13,1.71-1.99,3.45-1.99,3.45l3.03.78s1.51-1.76,2.56-3.59Z"/>
        </g>
        <path class="cls-17" d="m339.86,163.98c-2.24,3.42-7.2,4.14-11.09,1.6-3.89-2.54-5.23-7.38-3-10.8s7.2-4.14,11.1-1.6,5.23,7.38,3,10.8Z"/>
        <g>
          <path class="cls-21" d="m331.6,156.69c-.24.94-1.21,1.51-2.15,1.27-.94-.24-1.51-1.21-1.27-2.15s1.21-1.51,2.15-1.27,1.51,1.21,1.27,2.15Z"/>
          <path class="cls-18" d="m331.6,156.69c-.24.94-1.21,1.51-2.15,1.27-.94-.24-1.51-1.21-1.27-2.15s1.21-1.51,2.15-1.27,1.51,1.21,1.27,2.15Z"/>
          <g>
            <path class="cls-1" d="m330.04,155.32c-.12-.03-.23.04-.26.16-.03.12.04.23.16.26.12.03.23-.04.26-.16.03-.12-.04-.23-.16-.26Z"/>
            <path class="cls-1" d="m329.68,156.72c-.12-.03-.23.04-.26.16s.04.23.16.26c.12.03.23-.04.26-.16.03-.12-.04-.23-.16-.26Z"/>
            <path class="cls-1" d="m330.56,156.2c-.12-.03-.23.04-.26.16-.03.12.04.23.16.26.12.03.23-.04.26-.16s-.04-.23-.16-.26Z"/>
            <path class="cls-1" d="m329.16,155.84c-.12-.03-.23.04-.26.16-.03.12.04.23.16.26.12.03.23-.04.26-.16s-.04-.23-.16-.26Z"/>
          </g>
        </g>
        <g>
          <path class="cls-21" d="m336.64,161.44c-.24.94-1.21,1.51-2.15,1.27-.94-.24-1.51-1.21-1.27-2.15s1.21-1.51,2.15-1.27c.94.24,1.51,1.21,1.27,2.15Z"/>
          <path class="cls-9" d="m336.64,161.44c-.24.94-1.21,1.51-2.15,1.27-.94-.24-1.51-1.21-1.27-2.15s1.21-1.51,2.15-1.27c.94.24,1.51,1.21,1.27,2.15Z"/>
          <g>
            <path class="cls-1" d="m335.28,160.08c-.12-.03-.23.04-.26.16-.03.12.04.23.16.26.12.03.23-.04.26-.16.03-.12-.04-.23-.16-.26Z"/>
            <path class="cls-1" d="m334.92,161.47c-.12-.03-.23.04-.26.16-.03.12.04.23.16.26.12.03.23-.04.26-.16.03-.12-.04-.23-.16-.26Z"/>
            <path class="cls-1" d="m335.8,160.96c-.12-.03-.23.04-.26.16-.03.12.04.23.16.26.12.03.23-.04.26-.16.03-.12-.04-.23-.16-.26Z"/>
            <path class="cls-1" d="m334.4,160.6c-.12-.03-.23.04-.26.16-.03.12.04.23.16.26s.23-.04.26-.16c.03-.12-.04-.23-.16-.26Z"/>
          </g>
        </g>
        <path class="cls-21" d="m328.18,160.28c.92.94,1.84,1.88,2.77,2.81.36.37.92-.2.56-.57l-2.77-2.81c-.36-.37-.92.2-.56.57h0Z"/>
        <path class="cls-14" d="m325.89,163.33l3.68,2.94s-3.02.97-3.68-2.94Z"/>
        <polygon class="cls-13" points="323.05 169.8 325.05 173.44 327.74 172.51 325.5 168.85 323.05 169.8"/>
        <g>
          <polygon class="cls-16" points="328.16 168.67 321.47 171.52 322.44 173.64 329.67 170.7 328.16 168.67"/>
          <polygon class="cls-6" points="328.16 168.67 321.47 171.52 322.44 173.64 329.67 170.7 328.16 168.67"/>
        </g>
        <path class="cls-19" d="m321.08,173.75c-1.68-1.26-2.27-3.65-2.46-4.89-.49,1.01-.88,2.09-1.11,3.2,1.13,1.24,3.57,1.69,3.57,1.69Z"/>
        <g>
          <path class="cls-16" d="m319.72,171.64c.16-.63-.22-1.28-.85-1.44-.1-.03-.19-.02-.29-.02-.07-.24-.19-.46-.35-.66.15-.1.27-.25.32-.43.1-.39-.13-.78-.52-.88-.06-.02-.12,0-.17,0,.01-.03.04-.06.05-.1.16-.63-.22-1.27-.84-1.43-.5-.13-1,.1-1.27.51-.02,0-.04-.03-.07-.03-.63-.16-1.27.22-1.43.84-.02.07,0,.14-.01.21-.07-.05-.14-.09-.23-.11-.39-.1-.78.13-.88.52-.01.04,0,.09,0,.13,0,0-.01,0-.02-.01-.63-.16-1.27.22-1.43.84-.16.63.22,1.27.84,1.43.28.07.55.02.79-.09,0,.02-.03.04-.03.07-.16.63.22,1.28.85,1.44.46.12.92-.06,1.2-.4.24.26.55.46.92.56.36.09.71.07,1.04-.03.05.27.25.5.53.57.39.1.78-.13.88-.52,0-.03,0-.05,0-.08.46-.07.86-.4.98-.88Z"/>
          <path class="cls-6" d="m319.72,171.64c.16-.63-.22-1.28-.85-1.44-.1-.03-.19-.02-.29-.02-.07-.24-.19-.46-.35-.66.15-.1.27-.25.32-.43.1-.39-.13-.78-.52-.88-.06-.02-.12,0-.17,0,.01-.03.04-.06.05-.1.16-.63-.22-1.27-.84-1.43-.5-.13-1,.1-1.27.51-.02,0-.04-.03-.07-.03-.63-.16-1.27.22-1.43.84-.02.07,0,.14-.01.21-.07-.05-.14-.09-.23-.11-.39-.1-.78.13-.88.52-.01.04,0,.09,0,.13,0,0-.01,0-.02-.01-.63-.16-1.27.22-1.43.84-.16.63.22,1.27.84,1.43.28.07.55.02.79-.09,0,.02-.03.04-.03.07-.16.63.22,1.28.85,1.44.46.12.92-.06,1.2-.4.24.26.55.46.92.56.36.09.71.07,1.04-.03.05.27.25.5.53.57.39.1.78-.13.88-.52,0-.03,0-.05,0-.08.46-.07.86-.4.98-.88Z"/>
          <g class="cls-18">
            <path d="m319.72,171.64c.08-.29.02-.59-.1-.84-.18.33-.5.56-.87.61,0,.03,0,.05,0,.08-.1.39-.5.62-.88.52-.28-.07-.48-.3-.53-.57-.33.1-.68.12-1.04.03-.37-.1-.68-.29-.92-.56-.28.34-.74.52-1.2.4-.63-.16-1.01-.81-.85-1.44,0-.03.03-.04.03-.07-.24.11-.51.16-.79.09-.33-.08-.58-.3-.73-.58-.04.08-.1.15-.12.25-.16.63.22,1.27.84,1.43.28.07.55.02.79-.09,0,.02-.03.04-.03.07-.16.63.22,1.28.85,1.44.46.12.92-.06,1.2-.4.24.26.55.46.92.56.36.09.71.07,1.04-.03.05.27.25.5.53.57.39.1.78-.13.88-.52,0-.03,0-.05,0-.08.46-.07.86-.4.98-.88Z"/>
          </g>
        </g>
      </g>
      <path class="cls-16" d="m280.13,83.8s-3.75,1.84-3.26,3.49c.49,1.65,3.8-.46,3.8-.46l-.54-3.04Z"/>
      <path class="cls-16" d="m279.25,84.13s-1.9,9.16-.39,8.02c1.26-.96,2.17,4.6,3.14,2.92s.85-8.45.85-8.45l-3.15-3.21-.45.72Z"/>
      <path class="cls-21" d="m270.77,100.03l27.53,1.66c.82.05,1.46.7,1.49,1.53l1.67,47.06h-35.41l2.68-48.43c.06-1.06.99-1.89,2.04-1.83Z"/>
      <path class="cls-19" d="m289.71,100.44l-.21-5.44-6.99-2.24-1.09,7.01c-.07.47-.54.86-1.01.83l-1.68-.06.99,2.17,3.81,1.95h5.74l3.54-1.47-1.02-1.86-1.33-.13c-.43-.03-.73-.33-.75-.75Z"/>
      <path class="cls-14" d="m282.42,93.31l-.04.27c.34,1.1,2.05,5.56,7.31,6.23l-.19-4.82-5.98-1.92-1.11.23Z"/>
      <g>
        <path class="cls-21" d="m287.68,105.95c.15,0,.31,0,.45,0,2.43,0,4.02-.66,4.73-1.96.46-.84.45-1.77.25-2.62l-2.31-.14c.27.64.44,1.35.2,1.78-.31.56-1.47.85-3.18.8-3.64-.12-6.14-1.73-7.71-3.23l-3.05-.18c1.46,1.95,4.83,5.36,10.61,5.54Z"/>
        <path class="cls-5" d="m287.68,105.95c.15,0,.31,0,.45,0,2.43,0,4.02-.66,4.73-1.96.46-.84.45-1.77.25-2.62l-2.31-.14c.27.64.44,1.35.2,1.78-.31.56-1.47.85-3.18.8-3.64-.12-6.14-1.73-7.71-3.23l-3.05-.18c1.46,1.95,4.83,5.36,10.61,5.54Z"/>
      </g>
      <path class="cls-19" d="m281.46,80.6c-1.4,6.16-2.13,8.77.02,12.73,3.23,6.02,11.11,6.4,14.32.78,2.87-5.06,4.74-14.29-.52-18.44-3.72-2.98-9.14-2.38-12.12,1.34-.84,1.05-1.43,2.28-1.71,3.6Z"/>
      <path class="cls-16" d="m290.65,85.03c-.14.49,0,.97.33,1.06.32.1.7-.23.84-.72.14-.49,0-.97-.32-1.06-.32-.1-.7.23-.85.72Z"/>
      <path class="cls-16" d="m296.23,86.67c-.15.49,0,.97.32,1.06.32.09.7-.23.85-.72.15-.49,0-.97-.32-1.06-.32-.1-.7.23-.85.72Z"/>
      <path class="cls-10" d="m294.25,87.05c.11,1.25.39,2.48.83,3.66-.61.22-1.29.15-1.85-.18l1.02-3.48Z"/>
      <path class="cls-16" d="m290.22,82.9c.1.08.24.09.35.02,1.2-.72,2.85,0,2.86,0,.15.07.33,0,.4-.15.07-.15,0-.33-.15-.4-.08,0-1.96-.84-3.42.03-.14.09-.19.27-.1.41.01.03.03.06.06.09Z"/>
      <path class="cls-16" d="m291.03,92.05c.06.05.15.06.22.01.75-.45,1.79,0,1.79,0,.1.04.21,0,.25-.1.04-.1,0-.21-.1-.25-.05,0-1.23-.53-2.14.02-.09.05-.12.17-.06.26,0,.02.02.04.04.05Z"/>
      <path class="cls-16" d="m298.58,84.67c.1.04.21.03.3-.03.13-.1.16-.28.06-.42-.55-.81-1.45-1.29-2.43-1.31-.17,0-.3.15-.29.32,0,.17.15.3.32.29.77.03,1.48.42,1.91,1.06.03.04.08.07.13.1Z"/>
      <path class="cls-16" d="m271.73,100.02s.93,14.11-4.73,33.07c0,0-1.63,4.21-.38,6.9,0,0,10.72-15.23,8.92-39.68,0,0-.81-2.12-3.81-.29Z"/>
      <path class="cls-16" d="m295.4,101.51s1.61,21.89,5.67,37.68c0,0,1.94-7.68-.07-17.91-2.01-10.23-2.06-19.42-2.06-19.42,0,0-1.98-2.15-3.54-.35Z"/>
      <path class="cls-16" d="m283.26,82.97c-1.86,1.72-2.24,10.02-2.24,10.02,0,0-2.95-3.27-.89-9.19,1.41-4.05,3.72-1.38,3.13-.83Z"/>
      <path class="cls-19" d="m278.48,84.96c.11,1.22.71,2.34,1.65,3.12,1.25,1.03,2.54.06,2.72-1.46.17-1.37-.27-3.56-1.79-3.99-1.11-.3-2.25.36-2.54,1.47-.07.28-.09.57-.05.86Z"/>
      <path class="cls-16" d="m281.4,84.69s2.03,1.82,3.33-2.13c0,0,2.31,1.52,3.5-2.71,0,0,1.85,1.87,3.01-1.92,0,0,.13,2.48,1.57,2.31,1.45-.17.65-2.31.65-2.31,0,0,1.02,2.48,2.32,2.43,1.3-.06.39-2.43.39-2.43,0,0,1.36,3.38,3.16,3.16s-1.41-4.06-1.41-4.06c0,0,2.93,1.52,3.05,0,.11-1.52-3.78-2.2-3.78-2.2,0,0,3.5-.28,2.82-1.52-.68-1.24-5.5-.28-5.5-.28,0,0,.49-.78-.35-1.63-.84-.85-2.55.22-2.55.22,0,0-6.09-2.59-4.57.79,0,0-4.63-.96-3.05,1.07,0,0-4.17.68-2.14,1.97,0,0-4.91,1.24-2.88,2.48,0,0-2.37,3.44.56,2.82,0,0-3.89,5.96,1.86,3.94Z"/>
      <path class="cls-14" d="m268.54,108.39l-.2.46-1.05,18.95c2.67-7.2,3.46-18.01,3.46-18.01l-2.21-1.4Z"/>
      <g>
        <polygon class="cls-19" points="251.2 116.04 244.48 109.42 242.99 104.4 240.75 103.1 236.66 107.53 237.33 110.29 241.33 111.97 247.9 119.64 251.2 116.04"/>
        <path class="cls-21" d="m270.35,100.85l.48,5.93c.32,3.99-1.04,8.01-3.82,11.02-2.94,3.19-6.94,6.7-10.47,6.98-6.56.53-13.86-10.11-13.86-10.11l4.27-4.58s6.72,6.45,9.89,6.04c2.55-.33,9.6-11.24,12.29-15.54.34-.55,1.17-.37,1.22.26Z"/>
      </g>
      <g>
        <path class="cls-21" d="m295.46,71.97s-5.86-6.49-13.16-1.94c-7.35,4.57-4.31,13.41-4.31,13.41,0,0,7.23-10.24,17.47-11.46Z"/>
        <path class="cls-7" d="m295.46,71.97s-5.86-6.49-13.16-1.94c-7.35,4.57-4.31,13.41-4.31,13.41,0,0,7.23-10.24,17.47-11.46Z"/>
        <g>
          <path class="cls-21" d="m279.12,84.11c3.67-5.92,10.49-9.35,16.84-10.52,1.5-.28.87-2.71-.63-2.43-6.98,1.29-14.26,5.23-18.26,11.68-.84,1.36,1.21,2.62,2.05,1.27h0Z"/>
          <g class="cls-9">
            <path class="cls-1" d="m279.12,84.11c3.67-5.92,10.49-9.35,16.84-10.52,1.5-.28.87-2.71-.63-2.43-6.98,1.29-14.26,5.23-18.26,11.68-.84,1.36,1.21,2.62,2.05,1.27h0Z"/>
          </g>
        </g>
      </g>
    </g>
  </g>
  <g id="Character_2" data-name="Character 2">
    <g>
      <g>
        <path class="cls-21" d="m197.6,52.27s-13.85-1.55-18.96,10.94c-5.11,12.48-25.87,48.9,3.31,53.78,0,0,9.18,4.13,11.73-4.6s15.36-58.57,3.92-60.12Z"/>
        <path class="cls-5" d="m197.6,52.27s-13.85-1.55-18.96,10.94c-5.11,12.48-25.87,48.9,3.31,53.78,0,0,9.18,4.13,11.73-4.6s15.36-58.57,3.92-60.12Z"/>
        <path class="cls-21" d="m193.68,112.39c.28-.94.67-2.36,1.14-4.15-2.79.48-6.29.67-10.62.23-10.03-1.01-15.19-5.43-17.49-8.21.11,8.16,3.9,14.82,15.24,16.72,0,0,9.18,4.13,11.73-4.6Z"/>
        <path class="cls-8" d="m193.68,112.39c.28-.94.67-2.36,1.14-4.15-2.79.48-6.29.67-10.62.23-10.03-1.01-15.19-5.43-17.49-8.21.11,8.16,3.9,14.82,15.24,16.72,0,0,9.18,4.13,11.73-4.6Z"/>
        <path class="cls-14" d="m201.81,58.19l-8.88-3.98-6.76,5.37s-6.47,21.36-8.28,40.77c-.68,7.36-1.17,12.08-1.51,15.1,1.61.66,3.46,1.19,5.57,1.54,0,0,9.18,4.13,11.73-4.6,2.05-7,10.69-40.43,8.13-54.2Z"/>
      </g>
      <path class="cls-20" d="m213.05,46.97c.04.41,1.01,6.4-4.32,6.39-5.74-.01-8.54-5.75-9.09-7.79,4.55.65,5.94-12.89,5.94-12.89l2.22,1.45,2.47,4.62s-.67,7.28,2.77,8.22Z"/>
      <path class="cls-14" d="m213.05,46.97c.04.41,1.01,6.4-4.32,6.39-5.74-.01-8.54-5.75-9.09-7.79,4.55.65,5.94-12.89,5.94-12.89l2.22,1.45,2.47,4.62s-.67,7.28,2.77,8.22Z"/>
      <path class="cls-20" d="m216.91,71.46s5.88,13.42,7.5,17.62c2.19,5.71,11.38,19.67,11.38,19.67l2.86,4.93,2.19,2.36c.74.8,1.96.95,2.87.35l2.3-1.5c1.11-.72,1.35-2.25.52-3.28l-3.67-4.91-4.56-1.75s-8.87-14.35-10.08-19.88c-.79-3.59-4.07-14.4-4.07-14.4l-7.22.8Z"/>
      <path class="cls-21" d="m221.46,48.59c-2.95-.62-6.85,3.93-5.53,17.25,1.32,13.32,3.1,17.06,5.3,21.27,2.21,4.21,9.89,19.8,9.89,19.8l8.18-4.19s-10.24-17.32-11.29-23.14c-1.06-5.82-1.39-29.9-6.55-30.98Z"/>
      <path class="cls-14" d="m222.91,90.4c3.36-16.17,1.89-36.26,1.89-36.29,0,0,0,0,0,0l-3.33-1.64-3.45,2.65-2.34,4.94c-.03,1.71.04,3.63.26,5.78,1.32,13.32,3.1,17.06,5.3,21.27.4.77.99,1.92,1.68,3.29Z"/>
      <polygon class="cls-20" points="165.61 199.9 155.46 217.13 159.97 221.46 172.17 203.94 165.61 199.9"/>
      <path class="cls-16" d="m160.29,219.91l-4.59-4.01c-.17-.15-.43-.16-.61-.03l-4.1,3.01c-.37.26-.45.77-.18,1.14.03.05.07.09.12.13,1.68,1.42,3.23,2.61,5.29,4.42,2.43,2.13,1.56,1.88,4.38,4.42,1.7,1.53,3.73-.15,3.08-.89-2.97-3.34-2.44-4.66-2.68-6.98-.08-.47-.33-.9-.71-1.21Z"/>
      <polygon class="cls-20" points="207.51 204.97 212.15 227.85 218.23 226.63 215.36 203.54 207.51 204.97"/>
      <path class="cls-16" d="m217.39,221.75l-6.16,1.27c-.23.05-.4.25-.4.49l-.08,5.24c-.01.46.36.85.82.86.06,0,.12,0,.18-.01,2.21-.5,4.16-1.02,6.93-1.59,3.26-.67,2.52-.11,6.36-.84,2.32-.44,2.2-3.16,1.19-3.09-4.6.36-5.34-.9-7.4-2.15-.44-.23-.95-.29-1.43-.17Z"/>
      <path class="cls-16" d="m182.21,104.11s-3.73,13.17-1.71,24.82c1.63,9.43-21.67,73.09-21.67,73.09,0,0-1.69,8.34,21.67,7.81,23.36-.52,21.22,7.62,40.73-1.38,0,0-4.29-29.58-6.64-48.23s-4.08-23.77-2.72-30.87c1.36-7.09,3.44-22.67,3.44-22.67l-33.1-2.57Z"/>
      <path class="cls-5" d="m182.21,104.11s-3.73,13.17-1.71,24.82c1.63,9.43-21.67,73.09-21.67,73.09,0,0-1.69,8.34,21.67,7.81,23.36-.52,21.22,7.62,40.73-1.38,0,0-4.29-29.58-6.64-48.23s-4.08-23.77-2.72-30.87c1.36-7.09,3.44-22.67,3.44-22.67l-33.1-2.57Z"/>
      <path class="cls-14" d="m202.57,212.37c-5.64-4.17-2.13-26.42-4.06-36.71s-8.07-26.02-8.07-26.02c.63,30.05-10.07,54.3-12.92,60.21.95.01,1.93.01,2.98-.01,11.89-.27,17.17,1.71,22.07,2.53h0Z"/>
      <path class="cls-14" d="m211.5,131.85c.08-.82.2-1.64.36-2.48,1.36-7.09,3.44-22.67,3.44-22.67l-33.1-2.57s-3.73,13.17-1.71,24.82c.06.35.08.78.08,1.27,6.15,1.47,16.9,3.13,30.93,1.64Z"/>
      <path class="cls-21" d="m203.14,46.26c-4.42-.68-12.27-4.1-15.1,3.7-2.83,7.8-4.76,34.38-7.33,51.53-2.57,17.15-3.89,24.44-3.89,24.44,0,0,23.03,4.29,38.75,1.71,0,0-2.06-6.27,1.8-28.1,3.85-21.84,8.67-39.97,6.69-47.51-1.98-7.55-8.09-3.8-20.92-5.76Z"/>
      <path class="cls-14" d="m194.34,46.55l-7.09,6.17c-1.11,4.63-2.09,12.04-3.05,20.19,10.97-13.95,12.43-24.14,12.43-24.14l-2.29-2.23Z"/>
      <path class="cls-20" d="m206.73,24.1c-1.88,6.1-3.29,9.56-1.48,13.84,1.73,4.24,6.57,6.27,10.81,4.53,1.56-.64,2.89-1.73,3.81-3.15,3.28-4.81,5.8-13.97.96-18.73-3.21-3.33-8.52-3.43-11.85-.22-1.06,1.02-1.83,2.3-2.24,3.71Z"/>
      <path class="cls-22" d="m214.99,29.48c-.19.48-.07.98.25,1.08.32.1.71-.16.9-.64s.08-.98-.26-1.08c-.33-.1-.71.16-.89.64Z"/>
      <path class="cls-22" d="m220.38,31.73c-.19.48-.08.97.25,1.08.33.11.71-.16.9-.64.19-.49.07-.98-.26-1.08-.33-.11-.71.16-.89.65Z"/>
      <path class="cls-25" d="m218.58,31.25c.01,1.72.25,3.43.71,5.09-1.14.45-2.45-.5-2.45-.5l1.74-4.6Z"/>
      <path class="cls-22" d="m216.43,25.72s.1,0,.14.01c.14.09.19.27.1.41,0,0,0,0,0,.01-.5.84-1.39,1.38-2.37,1.43-.17,0-.3-.13-.3-.3,0,0,0,0,0,0,0-.16.13-.3.3-.3,0,0,0,0,0,0,.76-.05,1.45-.46,1.85-1.1.05-.1.16-.16.27-.15Z"/>
      <path class="cls-22" d="m222.34,28.17c.09.04.16.12.18.22.13.78.62,1.45,1.31,1.82.14.09.18.28.09.43-.07.11-.21.16-.33.13h0c-.87-.45-1.49-1.28-1.65-2.25-.03-.16.07-.32.23-.35,0,0,0,0,0,0,.06-.01.12,0,.17.01Z"/>
      <path class="cls-22" d="m214.01,37.96s-.07-.05-.1-.08c-.06-.13,0-.29.14-.34,0,0,0,0,.01,0,.79-.34,1.69-.27,2.41.19.12.08.15.25.06.36,0,0,0,0,0,0-.08.12-.25.15-.36.06,0,0,0,0,0,0-.56-.35-1.27-.41-1.88-.15-.09.04-.19.03-.27-.03Z"/>
      <path class="cls-16" d="m206.39,29.29s2.74,1.7,3.17-2.65c.43-4.35,6.89-8.07,13.04-3.48,0,0,3.23-3.45-.67-4.62,0,0-7.68-8.37-15.8-.86-7.26,6.72-.43,13.57-.43,13.57l.69-1.96Z"/>
      <path class="cls-14" d="m212.27,35.14c.78,2.7.35,5.2-.96,5.57-1.31.38-2.1-1.51-2.87-4.21s-1.25-5.2.06-5.57c1.31-.38,3,1.51,3.78,4.21Z"/>
      <path class="cls-20" d="m202.61,28.2c-.09,1.42.36,2.83,1.26,3.93,1.19,1.43,2.77.56,3.25-1.16.43-1.56.33-4.17-1.26-4.97-1.59-.8-3.12.44-3.25,2.2Z"/>
      <path class="cls-21" d="m207.67,44.94s-7.53-24.56,11.61-28.51c0,0-3.65-6.78-12.9-1.87,0,0-16.62,6.43-5.72,28.46l7,1.92Z"/>
      <g>
        <path class="cls-9" d="m207.67,44.94s-7.53-24.56,11.61-28.51c0,0-3.65-6.78-12.9-1.87,0,0-16.62,6.43-5.72,28.46l7,1.92Z"/>
        <path class="cls-18" d="m204.23,39.66c-.01,2.05-3.13,1.13-4.85.46.39.93.8,1.89,1.3,2.89l7,1.92s-5.99-19.58,6.37-26.58c-.02,0-.03,0-.04,0-10.44,2.39-9.75,18.48-9.77,21.3Z"/>
      </g>
      <g>
        <path class="cls-21" d="m193.65,44.69s9.67,3.75-11.17,43.17c0,0-2.42,5.37-1.18,9.46,0,0,16.48-27.47,18.34-42.09,1.15-9.09-2.04-12.07-2.04-12.07l-3.95,1.53Z"/>
        <path class="cls-5" d="m193.65,44.69s9.67,3.75-11.17,43.17c0,0-2.42,5.37-1.18,9.46,0,0,16.48-27.47,18.34-42.09,1.15-9.09-2.04-12.07-2.04-12.07l-3.95,1.53Z"/>
      </g>
      <g>
        <path class="cls-21" d="m215.43,47.08s10.7,11.13,2.44,49.69c0,0,2.9-4.06,3.97-11.51,1.35-9.4,5.24-24.2-3.3-37.84,0,0-4.37-2.34-3.12-.33Z"/>
        <path class="cls-5" d="m215.43,47.08s10.7,11.13,2.44,49.69c0,0,2.9-4.06,3.97-11.51,1.35-9.4,5.24-24.2-3.3-37.84,0,0-4.37-2.34-3.12-.33Z"/>
      </g>
      <g>
        <g>
          <path class="cls-16" d="m184.49,147.95h-31.1c-3.45,0-6.18-2.94-5.91-6.38l1.39-18.04c.24-3.09,2.81-5.47,5.91-5.47h28.32c3.1,0,5.67,2.39,5.91,5.47l1.39,18.04c.26,3.44-2.46,6.38-5.91,6.38Z"/>
          <path class="cls-7" d="m184.49,147.95h-31.1c-3.45,0-6.18-2.94-5.91-6.38l1.39-18.04c.24-3.09,2.81-5.47,5.91-5.47h28.32c3.1,0,5.67,2.39,5.91,5.47l1.39,18.04c.26,3.44-2.46,6.38-5.91,6.38Z"/>
        </g>
        <path class="cls-16" d="m163.43,119.06c.28-2.79,1.39-11.5,5.39-11.06,4.15.46,5.21,8.81,5.52,12.04.12,1.29,2.15,1.3,2.03,0-.41-4.39-1.82-13.77-7.61-14.1-5.61-.31-6.95,9.11-7.35,13.11-.13,1.3,1.9,1.29,2.03,0h0Z"/>
        <g>
          <path class="cls-16" d="m182.61,147.95c-4.31-.66,0-21.63,0-21.63l-6.55-2.1h-11.91l-15.4.8-1.27,16.55c-.26,3.44,2.46,6.38,5.91,6.38h29.22Z"/>
          <path class="cls-4" d="m182.61,147.95c-4.31-.66,0-21.63,0-21.63l-6.55-2.1h-11.91l-15.4.8-1.27,16.55c-.26,3.44,2.46,6.38,5.91,6.38h29.22Z"/>
        </g>
        <g>
          <path class="cls-16" d="m185.57,118.62c-.76-.35-1.59-.56-2.47-.56h-28.32c-3.1,0-5.67,2.39-5.91,5.47l-.36,4.72c.33.38.76.69,1.34.9,5.42,1.97,32.02,1.6,33.13-1.35.94-2.51.21-7.5,2.59-9.18Z"/>
          <path class="cls-2" d="m185.57,118.62c-.76-.35-1.59-.56-2.47-.56h-28.32c-3.1,0-5.67,2.39-5.91,5.47l-.36,4.72c.33.38.76.69,1.34.9,5.42,1.97,32.02,1.6,33.13-1.35.94-2.51.21-7.5,2.59-9.18Z"/>
        </g>
        <g>
          <path class="cls-16" d="m153.87,134.86h0c-.89,0-1.57-.78-1.45-1.66l.58-4.25c.1-.73.72-1.27,1.45-1.27h0c.89,0,1.57.78,1.45,1.66l-.58,4.25c-.1.73-.72,1.27-1.45,1.27Z"/>
          <path class="cls-16" d="m174.01,134.86h0c-.89,0-1.57-.78-1.45-1.66l.58-4.25c.1-.73.72-1.27,1.45-1.27h0c.89,0,1.57.78,1.45,1.66l-.58,4.25c-.1.73-.72,1.27-1.45,1.27Z"/>
        </g>
        <g class="cls-8">
          <path class="cls-1" d="m153.87,134.86h0c-.89,0-1.57-.78-1.45-1.66l.58-4.25c.1-.73.72-1.27,1.45-1.27h0c.89,0,1.57.78,1.45,1.66l-.58,4.25c-.1.73-.72,1.27-1.45,1.27Z"/>
          <path class="cls-1" d="m174.01,134.86h0c-.89,0-1.57-.78-1.45-1.66l.58-4.25c.1-.73.72-1.27,1.45-1.27h0c.89,0,1.57.78,1.45,1.66l-.58,4.25c-.1.73-.72,1.27-1.45,1.27Z"/>
        </g>
      </g>
      <g>
        <path class="cls-20" d="m180.74,57.5s-6.92,9.54-8.59,14.13c-1.67,4.59-5.82,28.75-5.82,28.75l-1.18,6.76v3.21c-.02,1.09.77,2.03,1.85,2.22l2.71.47c1.3.23,2.52-.72,2.62-2.04l.57-7.31-2.14-4.4s7.46-23.78,8.89-26.37c1.43-2.59,6.52-9.99,6.52-9.99l-5.42-5.45Z"/>
        <path class="cls-21" d="m196.47,45.79c-1.78-2.44-7.72-1.66-15.65,9.12-7.93,10.78-9.11,14.75-10.29,19.36s-5.89,21.33-5.89,21.33l8.88,2.36s3.98-19.72,7.09-24.76,18.97-23.15,15.86-27.41Z"/>
      </g>
      <g>
        <path class="cls-21" d="m195.59,43.14s5.76-4.7,10.82-1.81c5.06,2.89,10.53-.37,11.5.84s-.79,2.47.74,3.53c1.53,1.06-.83,7.59-7.65,8.2-6.82.6-15.41-10.76-15.41-10.76Z"/>
        <g>
          <path class="cls-8" d="m195.59,43.14s5.76-4.7,10.82-1.81c5.06,2.89,10.53-.37,11.5.84s-.79,2.47.74,3.53c1.53,1.06-.83,7.59-7.65,8.2-6.82.6-15.41-10.76-15.41-10.76Z"/>
          <path class="cls-12" d="m202.43,44.77s6.72,3.62,13.52,1.4c0,0-3.9,6.82-13.52-1.4Z"/>
        </g>
      </g>
    </g>
  </g>
  <g id="Character_1" data-name="Character 1">
    <g>
      <g>
        <path class="cls-23" d="m133.56,220.43l-2.25-20.05-8.53,1.66s4.58,19.39,4.52,19.65l-1.15,5.6c-.11.5.21.98.71,1.09.06.01.13.02.19.02,2.47-.08,4.67-.25,7.74-.3,3.63-.06,2.72.39,6.99.38,2.57,0,3-2.94,1.9-3.07-5-.55-10.13-4.99-10.13-4.99Z"/>
        <path class="cls-16" d="m141.79,224.13c-2.81-.21-5.27,1.88-6.72,4.07-.8,0-1.6,0-2.4.01.23-2.22,1.09-4.86,3.12-6.06.6-.35.11-1.32-.49-.97-2.41,1.42-3.47,4.39-3.73,7.04-1.85.01-3.69.02-5.54.03-.87,0-.94,1.36-.07,1.35,6.1-.04,12.2-.08,18.3-.11.87,0,.94-1.36.07-1.35-2.64.02-5.29.03-7.93.05,1.27-1.66,3.17-3.14,5.34-2.98.7.05.75-1.03.05-1.08Z"/>
      </g>
      <g>
        <path class="cls-23" d="m75.03,215.07l11.77-16.38-7.44-4.49s-9.61,17.46-9.82,17.61l-4.61,3.38c-.41.3-.5.87-.21,1.28.04.05.08.1.13.14,1.89,1.6,3.63,2.94,5.95,4.97,2.73,2.39,1.75,2.11,4.93,4.97,1.91,1.72,4.19-.17,3.47-1-3.34-3.76-4.17-10.49-4.17-10.49Z"/>
        <path class="cls-16" d="m78.66,223.33c-1.94-2.04-5.17-2.14-7.72-1.49-.6-.53-1.19-1.07-1.79-1.6,1.66-1.49,4.07-2.88,6.38-2.4.68.14.97-.9.29-1.04-2.74-.56-5.52.93-7.48,2.72-1.38-1.23-2.76-2.46-4.13-3.69-.65-.58-1.61.38-.96.96,4.55,4.06,9.1,8.12,13.65,12.18.65.58,1.61-.38.96-.96-1.97-1.76-3.95-3.52-5.92-5.28,2.05-.38,4.46-.2,5.96,1.37.48.51,1.25-.26.77-.77Z"/>
      </g>
      <g>
        <path class="cls-23" d="m128.75,55.36s-.9,14.44.56,18.95c1.98,6.13,14.46,21.32,14.46,21.32l3.62,6.24,2.17,2.6c.74.89,2.01,1.11,3,.53l2.5-1.45c1.2-.7,1.55-2.28.74-3.42l-4.49-6.28-4.7-2.1s-9.41-15.59-10.37-21.47c-.62-3.82,1.95-15.36,1.95-15.36l-9.44.44Z"/>
        <path class="cls-16" d="m131.48,36.36s-4.29-.1-3.85,23.12l10.43,1.12s6.92-12.58,3.2-19.29-9.77-4.95-9.77-4.95Z"/>
        <path class="cls-12" d="m131.48,36.36s-4.29-.1-3.85,23.12l10.43,1.12s6.92-12.58,3.2-19.29-9.77-4.95-9.77-4.95Z"/>
        <g>
          <polygon class="cls-16" points="126.88 60.17 139.35 61.35 141.28 57.78 127.02 55.98 126.88 60.17"/>
          <polygon class="cls-3" points="126.88 60.17 139.35 61.35 141.28 57.78 127.02 55.98 126.88 60.17"/>
        </g>
      </g>
      <g>
        <path class="cls-21" d="m131.07,93.17s-2.56,20.01-8.49,33.27c0,0-8.03,26.99-11.75,36.99s-28.62,43.04-28.62,43.04l-7.68-6.05s13.26-32.16,22.1-43.28c0,0,4.19-36.99,6.17-44.44,0,0-1.1-14.9,2.42-21.41l25.85,1.86Z"/>
        <path class="cls-3" d="m131.07,93.17s-2.56,20.01-8.49,33.27c0,0-8.03,26.99-11.75,36.99s-28.62,43.04-28.62,43.04l-7.68-6.05s13.26-32.16,22.1-43.28c0,0,4.19-36.99,6.17-44.44,0,0-1.1-14.9,2.42-21.41l25.85,1.86Z"/>
      </g>
      <g>
        <path class="cls-21" d="m97.57,90.38s-5.02,16.44,1.81,31.64c0,0,2.54,16.67,13.71,40.24,0,0,2.79,21.49,10.24,51.27l10.55-2.5-4.65-52.8-6.57-39.48s3.78-15.96,5.64-24.65l-30.71-3.72Z"/>
        <path class="cls-5" d="m97.57,90.38s-5.02,16.44,1.81,31.64c0,0,2.54,16.67,13.71,40.24,0,0,2.79,21.49,10.24,51.27l10.55-2.5-4.65-52.8-6.57-39.48s3.78-15.96,5.64-24.65l-30.71-3.72Z"/>
      </g>
      <path class="cls-16" d="m101.41,38.14l-5.47,57.05,34.9,3.91s6.88-30.91,8.23-57.36c.15-2.92-2.03-5.45-4.95-5.75l-26.64-2.79c-3.05-.32-5.77,1.9-6.07,4.95Z"/>
      <path class="cls-23" d="m128.97,35.45c.04.43,1.07,6.73-4.54,6.72-6.04-.01-8.99-6.05-9.57-8.2,4.79.69,5.35-16.27,5.35-16.27l3.24,4.23,4.41,5.77s-2.51,6.76,1.11,7.75Z"/>
      <path class="cls-8" d="m100.73,45.22l-1.36,14.17c10.8-8.28,11.82-15.99,11.82-15.99h-3.83l-6.64,1.82Z"/>
      <path class="cls-15" d="m127.32,33.92c-.85-2.17.38-5.76.53-6.17-1.89-1.79-3.63-3.23-3.63-3.23l-1.81-.55-1.24.55s.37,6.8,6.15,9.39Z"/>
      <g>
        <path class="cls-23" d="m122.32,11.38c-1.98,6.42-3.46,10.06-1.56,14.57,1.82,4.46,6.92,6.6,11.37,4.77,1.64-.67,3.04-1.83,4.01-3.31,3.45-5.06,6.11-14.71,1.01-19.71-3.38-3.51-8.97-3.61-12.48-.23-1.11,1.07-1.93,2.42-2.35,3.91Z"/>
        <path class="cls-16" d="m131.02,17.04c-.2.51-.08,1.03.26,1.14.34.11.75-.16.94-.67.2-.51.08-1.03-.27-1.14s-.75.16-.94.67Z"/>
        <path class="cls-16" d="m136.7,19.41c-.2.51-.09,1.02.26,1.14.35.11.75-.16.95-.68.2-.51.08-1.03-.27-1.14-.35-.11-.75.16-.94.68Z"/>
        <path class="cls-24" d="m134.79,18.91c.01,1.81.26,3.61.75,5.36-1.2.47-2.58-.52-2.58-.52l1.83-4.84Z"/>
        <path class="cls-16" d="m132.53,13.08c.05,0,.1,0,.15.01.15.09.2.28.11.43,0,0,0,0,0,.01-.53.89-1.46,1.45-2.49,1.5-.17,0-.31-.14-.31-.31,0,0,0,0,0-.01,0-.17.14-.31.31-.31,0,0,0,0,.01,0,.8-.05,1.52-.48,1.95-1.16.06-.1.17-.17.29-.16Z"/>
        <path class="cls-16" d="m138.76,15.66c.1.04.17.13.19.23.14.82.65,1.53,1.38,1.92.15.1.19.3.09.45-.08.12-.22.17-.35.14h0c-.92-.47-1.56-1.35-1.74-2.37-.04-.17.07-.34.24-.37,0,0,0,0,0,0,.06-.01.12,0,.18.01Z"/>
        <g>
          <path class="cls-22" d="m134.51,26.07c-.73-2.49-4.6-1.59-6.02-2.38-1.12-.62-1.88-3.16-3.13-4.06-1.25-.9,0-5.58,0-5.58h-2.41c.64,4.42-1.96,8.17-2.93,9.39.14.82.38,1.64.74,2.5,1.82,4.46,6.92,6.6,11.37,4.77,1.64-.67,3.04-1.83,4.01-3.31.5-.73.98-1.57,1.42-2.47-1.49,1.03-2.52,2.95-3.06,1.13Z"/>
          <path class="cls-5" d="m134.51,26.07c-.73-2.49-4.6-1.59-6.02-2.38-1.12-.62-1.88-3.16-3.13-4.06-1.25-.9,0-5.58,0-5.58h-2.41c.64,4.42-1.96,8.17-2.93,9.39.14.82.38,1.64.74,2.5,1.82,4.46,6.92,6.6,11.37,4.77,1.64-.67,3.04-1.83,4.01-3.31.5-.73.98-1.57,1.42-2.47-1.49,1.03-2.52,2.95-3.06,1.13Z"/>
        </g>
        <path class="cls-16" d="m132.21,25.48s.07.06.09.09c.05.14-.03.3-.17.35,0,0,0,0-.01,0-.86.29-1.8.13-2.52-.42-.12-.1-.13-.27-.03-.39,0,0,0,0,0,0,.1-.12.27-.13.39-.03,0,0,0,0,0,0,.56.42,1.29.54,1.96.33.1-.04.21-.01.28.06Z"/>
        <path class="cls-16" d="m121.97,17.02s3.04.14,3.6-3.91c.56-4.05,4.06-2.47,6.06-5.06,0,0,3.4,4.17,4.25,2.37,0,0,3.93,3.27,4.59.9,0,0,5.2-.79-.17-4.17,0,0,.93-4.63-4.76-4.29,0,0-.14-3.72-5.57-2.03,0,0-2.49-2.26-4.97.68,0,0-3.81-.45-3.94,3.05,0,0-4.41.68-2.49,2.82,0,0-3.84,2.37-1.8,3.61,0,0-1.98,3.44.31,3.07,0,0-2.06,4.54.9,4.85,0,0-1.21,3.81.71,2.74s3.28-4.63,3.28-4.63Z"/>
        <path class="cls-23" d="m117.99,15.69c-.1,1.5.38,2.98,1.32,4.14,1.25,1.51,2.91.59,3.42-1.22.46-1.64.35-4.39-1.32-5.23-1.67-.84-3.28.46-3.42,2.31Z"/>
      </g>
      <g>
        <g>
          <path class="cls-21" d="m85.69,73.49c.06-2.88,1.98-5.26,5.05-5.27,3.15-.02,4.83,2.49,4.72,5.36-.05,1.31,2.08,1.28,2.11-.03.1-4-2.62-7.38-6.8-7.37-4.13.01-7.07,3.2-7.2,7.21-.04,1.3,2.09,1.41,2.11.1h0Z"/>
          <g class="cls-9">
            <path d="m85.69,73.49c.06-2.88,1.98-5.26,5.05-5.27,3.15-.02,4.83,2.49,4.72,5.36-.05,1.31,2.08,1.28,2.11-.03.1-4-2.62-7.38-6.8-7.37-4.13.01-7.07,3.2-7.2,7.21-.04,1.3,2.09,1.41,2.11.1h0Z"/>
          </g>
        </g>
        <path class="cls-21" d="m115.18,71.57c-14.01,1.44-28.2,1.44-42.21,0-5.91-.61-12.28,8.68-13.55,16.72-1.27,8.04,3.73,11.9,10.49,12.6,16.05,1.66,32.28,1.67,48.34,0,6.77-.7,11.62-5.45,10.35-13.49-1.27-8.04-7.5-16.44-13.41-15.83Z"/>
        <path class="cls-18" d="m128.59,87.4c1.27,8.04-3.58,12.78-10.35,13.49-6.77.71-12.44-2.03-12.85-10.16-.42-8.13,3.88-18.54,9.79-19.16,5.91-.62,12.14,7.79,13.41,15.83Z"/>
        <g class="cls-8">
          <path class="cls-1" d="m70.74,75.5c11.88.61,23.81.8,35.89.86,1.84,0,2.62-2.69.81-2.7-11.92-.07-23.9-.12-35.43-.85-1.75-.11-3.07,2.55-1.28,2.69h0Z"/>
        </g>
        <path class="cls-12" d="m72.28,82.53s-5.02,9.27-1.2,11.72c6.14,3.94,20.55,4.64,25.2-.22,2.73-2.86-.2-10.4-.2-10.4-9.53.09-14.3-.13-23.8-1.1Z"/>
        <path class="cls-16" d="m114.93,73.81c1.09,11.84-1.58,26.26-10.96,33.51-8,6.19-20.08,4.1-29.72,2.66-4.44-.67-13.01-1-13.62-5.85-.27-2.14.39-4.41,1.2-6.57-.91-.9-1.61-1.98-2.05-3.27-1.18,2.9-2.41,6-2.41,9.09,0,5.36,5.15,7.35,10.9,8.43,4.99.94,10.07,1.4,15.13,1.96,5.83.65,11.49.82,16.86-1.15,7.83-2.88,14.4-12.47,16.09-20.28,1.28-5.95,1.98-12.62,1.41-18.83-.16-1.74-2.98-1.41-2.82.31Z"/>
        <path class="cls-5" d="m114.93,73.81c1.09,11.84-1.58,26.26-10.96,33.51-8,6.19-20.08,4.1-29.72,2.66-4.44-.67-13.01-1-13.62-5.85-.27-2.14.39-4.41,1.2-6.57-.91-.9-1.61-1.98-2.05-3.27-1.18,2.9-2.41,6-2.41,9.09,0,5.36,5.15,7.35,10.9,8.43,4.99.94,10.07,1.4,15.13,1.96,5.83.65,11.49.82,16.86-1.15,7.83-2.88,14.4-12.47,16.09-20.28,1.28-5.95,1.98-12.62,1.41-18.83-.16-1.74-2.98-1.41-2.82.31Z"/>
        <path class="cls-21" d="m72.17,81.18c9.61.99,14.44,1.22,24.09,1.12.85,0,1.26.94.64,1.48-1.93,1.67-6.29,4.18-14.49,3.46-8.42-.73-10.65-3.44-11.21-4.97-.22-.59.31-1.16.98-1.09Z"/>
        <path class="cls-5" d="m72.17,81.18c9.61.99,14.44,1.22,24.09,1.12.85,0,1.26.94.64,1.48-1.93,1.67-6.29,4.18-14.49,3.46-8.42-.73-10.65-3.44-11.21-4.97-.22-.59.31-1.16.98-1.09Z"/>
        <path class="cls-16" d="m84.07,85.53c-.02.43-.42.76-.9.74-.48-.02-.85-.4-.82-.83.02-.43.43-.76.9-.74.47.02.84.39.82.82Z"/>
      </g>
      <g>
        <path class="cls-23" d="m92.6,46.12s-9.99,10.04-11.75,14.87c-1.76,4.84,2.9,30.27,2.9,30.27l-1.24,7.11v3.38c-.02,1.15.81,2.14,1.94,2.34l2.85.5c1.37.24,2.65-.76,2.76-2.14l.6-7.69-2.25-4.63s-1.18-25.03.33-27.76c1.51-2.73,11.37-10.51,11.37-10.51l-7.51-5.74Z"/>
        <path class="cls-16" d="m106.9,33.33s-3.22-2.84-17.82,15.23l7.27,7.56s13.39-5.19,14.85-12.72c1.46-7.53-4.3-10.08-4.3-10.08Z"/>
        <g>
          <polygon class="cls-16" points="86.8 48.71 95.59 57.63 99.36 56.14 89.59 45.6 86.8 48.71"/>
          <polygon class="cls-3" points="86.8 48.71 95.59 57.63 99.36 56.14 89.59 45.6 86.8 48.71"/>
        </g>
      </g>
      <g>
        <path class="cls-21" d="m141.06,115.81c1.52.59,3.43.52,4.75-.48,3.75-2.85.25-9.94,5.8-11.34,4.51-1.14,3.01,6.31,4.06,8.98,1.2,3.04,3.62,3.22,6.51,3.22,1.11,0,1.12-1.73,0-1.73-2.34,0-4.25-.1-5.09-2.72-.63-1.97-.28-4.11-.65-6.12-.4-2.2-1.6-3.52-3.96-3.5-2.79.03-5.04,2.22-5.88,4.75-.95,2.87-.2,9.17-5.08,7.27-1.04-.4-1.49,1.27-.46,1.67h0Z"/>
        <g class="cls-8">
          <path d="m141.06,115.81c1.52.59,3.43.52,4.75-.48,3.75-2.85.25-9.94,5.8-11.34,4.51-1.14,3.01,6.31,4.06,8.98,1.2,3.04,3.62,3.22,6.51,3.22,1.11,0,1.12-1.73,0-1.73-2.34,0-4.25-.1-5.09-2.72-.63-1.97-.28-4.11-.65-6.12-.4-2.2-1.6-3.52-3.96-3.5-2.79.03-5.04,2.22-5.88,4.75-.95,2.87-.2,9.17-5.08,7.27-1.04-.4-1.49,1.27-.46,1.67h0Z"/>
        </g>
      </g>
      <g>
        <path class="cls-21" d="m162.89,154.18h-21.49c-7.83,0-13.91-6.83-13-14.6l1.47-12.63c.77-6.6,6.36-11.57,13-11.57h18.55c6.64,0,12.23,4.98,13,11.57l1.47,12.63c.91,7.78-5.17,14.6-13,14.6Z"/>
        <path class="cls-7" d="m175.89,139.58l-1.47-12.63c-.61-5.22-3.99-9.13-9-9.13-5.01,0-8.4,3.92-9,9.13l-1.47,12.63c-.81,6.91,3.79,12.54,10.47,12.54s11.28-5.63,10.47-12.54Z"/>
        <path class="cls-18" d="m141.39,154.18h21.49c6.79,0,12.26-5.14,13-11.58-.06.07-4.33,5.39-10.47,5.39s-10.56-5.24-10.56-5.24c0,0-2.21,6.99-13.39,5.24s-13.06-8.41-13.06-8.41c-.91,7.78,5.17,14.6,13,14.6Z"/>
        <g>
          <path class="cls-21" d="m161.41,115.37c-4.62-.37-18.55,0-18.55,0-5.05,0-9.49,2.88-11.66,7.16-1.19,3.64-1.04,8.3,2.66,8.7,7.59.83,17.79,4.88,23.47-7.82,1.48-3.53,4.44-6.24,8.08-7.41,0,0-2.99-.56-4-.64Z"/>
          <g class="cls-18">
            <path d="m161.41,115.37c-4.62-.37-18.55,0-18.55,0-5.05,0-9.49,2.88-11.66,7.16-1.19,3.64-1.04,8.3,2.66,8.7,7.59.83,17.79,4.88,23.47-7.82,1.48-3.53,4.44-6.24,8.08-7.41,0,0-2.99-.56-4-.64Z"/>
          </g>
        </g>
        <path class="cls-16" d="m139.85,129.61l1.55.16c1.19.12,1.97,1.3,1.61,2.44-.28.87-.63,1.99-1.04,3.3-.65,2.12-.52,4.07-2.53,4.07-2.84,0-2.17-5.55-1.63-8.44.18-.97,1.07-1.63,2.04-1.53Z"/>
        <path class="cls-5" d="m139.85,129.61l1.55.16c1.19.12,1.97,1.3,1.61,2.44-.28.87-.63,1.99-1.04,3.3-.65,2.12-.52,4.07-2.53,4.07-2.84,0-2.17-5.55-1.63-8.44.18-.97,1.07-1.63,2.04-1.53Z"/>
      </g>
    </g>
  </g>
</svg>