<?xml version="1.0" encoding="UTF-8"?>
<svg id="Capa_2" data-name="Capa 2" xmlns="http://www.w3.org/2000/svg" viewBox="0 0 592 625.56">
  <defs>
    <style>
      .cls-1 {
        fill: #616e7d;
      }

      .cls-2 {
        fill: #aad4c8;
      }
    </style>
  </defs>
  <g id="Object">
    <g>
      <path class="cls-1" d="m500.04,593.84c1.86,5.76,5.95,10.51,11.37,13.24,5.41,2.73,11.62,3.18,17.38,1.26l47.67-15.88c11.9-3.98,18.32-16.83,14.37-28.7-3.99-11.9-16.84-18.34-28.7-14.37l-26.02,8.68-67.31-206.7c-3.61-11.12-15.17-17.7-26.59-15.09l-103.64,23.51c-8.31-15.39-18.82-29.46-31.11-41.71-22.11-22.12-50.06-38.53-81.3-46.78l-4.74-59.79c-.96,2-2.12,3.93-3.58,5.69l-37.83,46.23.13,1.9h-.07l-1.66.04-27.76,33.93c9.51-1.9,19.34-2.92,29.41-2.92.25,0,.49.01.73.01.14,0,.26-.01.4-.01.87,0,1.7.06,2.55.07,16.15.27,31.66,3.11,46.16,8.11,21.56,7.46,40.88,19.66,56.72,35.48,8.09,8.11,15.25,17.16,21.33,26.94,8.06,12.96,14.15,27.26,17.92,42.49,2.86,11.52,4.4,23.56,4.4,35.97-.01,41.22-16.65,78.37-43.65,105.4-27.03,27-64.2,43.64-105.42,43.67-.18,0-.37-.03-.56-.03s-.38.03-.57.03c-41.19-.03-78.36-16.67-105.39-43.67-26.99-27.03-43.64-64.19-43.66-105.4.01-41.2,16.67-78.37,43.66-105.4,2.02-1.99,4.09-3.93,6.2-5.81-3.73-4.24-6.16-9.6-6.75-15.26-.77-7.27,1.44-14.66,6.04-20.31l5.31-6.47c-11.91,7.36-22.93,16.04-32.76,25.89C20.18,350.61,0,395.75,0,445.44s20.18,94.81,52.75,127.36c32.54,32.57,77.67,52.77,127.35,52.76,49.71.01,94.84-20.18,127.38-52.76,32.57-32.55,52.76-77.68,52.76-127.36,0-14.76-1.82-29.11-5.18-42.86l77.02-17.48,67.97,208.74Z"/>
      <path class="cls-1" d="m96.74,94.38c0,45.33,32.01,83.2,74.63,92.28l1.89-2.3,1.61-1.95c5.16-6.3,12.77-9.96,20.9-10.07,6.44-.09,12.75,2.13,17.75,6.21,2.04,1.67,3.81,3.59,5.26,5.71l.21.28c38.51-11.89,66.5-47.77,66.5-90.17C285.48,42.26,243.23,0,191.1,0s-94.36,42.26-94.36,94.38Z"/>
      <path class="cls-2" d="m104.82,352.92l-19.32-15.38c-1.28-.98-2.4-2.12-3.47-3.32-2.1,1.89-4.17,3.82-6.18,5.81-27.01,27.03-43.65,64.2-43.67,105.4.02,41.22,16.66,78.37,43.67,105.4,26.9,26.88,63.85,43.47,104.82,43.64.19,0,.38.03.56.03,41.22-.03,78.4-16.67,105.42-43.67,27-27.03,43.64-64.19,43.65-105.4,0-12.42-1.54-24.46-4.4-35.97-3.77-15.23-9.87-29.53-17.92-42.49-6.08-9.78-13.24-18.83-21.33-26.94-15.84-15.82-35.15-28.02-56.72-35.48-14.5-5-30.01-7.84-46.16-8.11-.85,0-1.67-.07-2.55-.07-.13,0-.26.01-.4.01-9.93.03-19.64,1.04-29.02,2.91l-10.32,12.6,19.25,15.31c6.66-1.15,13.5-1.79,20.49-1.79,1.63,0,3.24.07,4.86.12,16.55.67,32.25,4.68,46.42,11.39,17.9,8.45,33.36,21.22,45.07,36.95,9.22,12.37,16.1,26.58,20,42,2.4,9.45,3.69,19.35,3.69,29.55,0,66.28-53.73,120-120.02,120s-120-53.72-120-120c0-37.22,16.98-70.5,43.6-92.52Z"/>
      <path class="cls-1" d="m208.4,211.15c5.91-7.22,5.23-17.65-1.26-24.09l-1.25-1.14c-3.39-2.77-7.5-4.1-11.56-4.05-5.06.07-10.05,2.27-13.53,6.45l-.14.12-7.9,9.66-87.21,106.61c-3.03,3.69-4.46,8.49-3.97,13.24.52,4.75,2.91,9.13,6.68,12.11l101.39,80.74,12.69,10.08c3.36,2.68,7.4,3.96,11.38,3.9,5.2-.07,10.32-2.37,13.8-6.75,6.17-7.74,4.88-19.01-2.86-25.19l-38.89-30.96-60.99-48.54,52.08-63.67,31.55-38.53Z"/>
    </g>
  </g>
</svg>