<?xml version="1.0" encoding="UTF-8"?>
<svg xmlns="http://www.w3.org/2000/svg" viewBox="0 0 100.42 115.19">
  <defs>
    <style>
      .cls-1 {
        fill: #d19f2f;
      }

      .cls-2 {
        fill: #e8c05d;
      }

      .cls-3 {
        isolation: isolate;
      }

      .cls-4 {
        fill: #cec4bc;
        mix-blend-mode: multiply;
      }

      .cls-5 {
        fill: #f2d88f;
      }
    </style>
  </defs>
  <g class="cls-3">
    <g id="Capa_2" data-name="Capa 2">
      <g id="OBJECT">
        <g>
          <g>
            <path class="cls-1" d="m71.07,99.66H29.77v3.57h0c.02,3.06,2.05,6.12,6.09,8.46,8.09,4.67,21.17,4.67,29.21,0,4.02-2.33,6.02-5.4,6-8.46h0v-3.57Z"/>
            <path class="cls-2" d="m64.97,91.2c8.09,4.67,8.13,12.25.1,16.92-8.03,4.67-21.12,4.67-29.21,0-8.09-4.67-8.13-12.25-.09-16.92,8.03-4.67,21.11-4.67,29.2,0Z"/>
          </g>
          <g>
            <path class="cls-1" d="m67.56,95.82h-34.29v2.96h0c.01,2.54,1.7,5.08,5.06,7.02,6.71,3.88,17.58,3.88,24.25,0,3.34-1.94,4.99-4.48,4.98-7.02h0v-2.96Z"/>
            <path class="cls-2" d="m62.5,88.8c6.72,3.88,6.75,10.17.08,14.04-6.67,3.88-17.53,3.88-24.25,0-6.72-3.88-6.75-10.17-.08-14.04,6.67-3.88,17.53-3.88,24.24,0Z"/>
          </g>
          <g>
            <path class="cls-1" d="m59.5,91.15h-18.16v3.56h0c0,1.35.9,2.69,2.68,3.72,3.56,2.05,9.31,2.05,12.84,0,1.77-1.03,2.64-2.37,2.64-3.72h0v-3.56Z"/>
            <path class="cls-5" d="m56.82,87.43c3.56,2.05,3.58,5.39.04,7.44-3.53,2.05-9.29,2.05-12.84,0-3.56-2.05-3.57-5.38-.04-7.44,3.53-2.05,9.28-2.05,12.84,0Z"/>
          </g>
          <g>
            <g>
              <path class="cls-1" d="m95.78,41.9c5.47,3.82,5.49,10.02.07,13.84-5.43,3.82-14.27,3.82-19.73,0-5.47-3.82-5.49-10.02-.06-13.84,5.43-3.82,14.26-3.82,19.73,0Z"/>
              <g>
                <path class="cls-2" d="m100.42,45.3h-28.95v2.5h0c.01,2.15,1.44,4.29,4.27,5.93,5.67,3.27,14.84,3.27,20.48,0,2.82-1.64,4.22-3.78,4.2-5.93h0v-2.5Z"/>
                <g>
                  <path class="cls-5" d="m96.15,39.37c5.67,3.27,5.7,8.59.07,11.86-5.63,3.27-14.81,3.27-20.48,0-5.67-3.27-5.7-8.59-.06-11.86,5.63-3.27,14.8-3.27,20.47,0Z"/>
                  <path class="cls-1" d="m85.99,52.18c-3.61,0-6.98-.8-9.49-2.25-2.27-1.31-3.51-2.96-3.52-4.64,0-1.67,1.23-3.31,3.46-4.6,2.5-1.45,5.86-2.25,9.46-2.25s6.98.8,9.49,2.25c2.27,1.31,3.52,2.96,3.52,4.65,0,1.67-1.22,3.3-3.45,4.6-2.5,1.45-5.86,2.25-9.47,2.25Z"/>
                  <path class="cls-2" d="m76.44,43.26c2.5-1.45,5.86-2.25,9.46-2.25s6.98.8,9.49,2.25c1.68.97,2.81,2.13,3.27,3.36.16-.42.25-.86.25-1.29,0-1.69-1.25-3.34-3.52-4.65-2.52-1.45-5.89-2.25-9.49-2.25s-6.97.8-9.46,2.25c-2.23,1.3-3.46,2.93-3.46,4.6,0,.43.09.86.25,1.29.46-1.21,1.56-2.35,3.21-3.31Z"/>
                  <path class="cls-4" d="m93.61,50.81c-.24-.17-.48-.34-.76-.5-1.84-1.06-4.3-1.65-6.94-1.65s-5.09.58-6.91,1.64c-.26.15-.49.31-.71.47,2.23.9,4.9,1.4,7.71,1.4s5.41-.48,7.62-1.36Z"/>
                </g>
              </g>
            </g>
            <g>
              <path class="cls-1" d="m100.04,43.85l-13.87-31.42c-.13-.3-.55-.3-.68,0l-13.64,31.42c-.11.26,0,.55.26.66.25.11.55,0,.66-.26l12.73-29.31c.13-.3.55-.3.68,0l12.94,29.31c.11.25.41.37.66.26h0c.25-.11.37-.41.26-.66Z"/>
              <path class="cls-1" d="m85.44,14.29v38.15c0,.28.23.5.5.5s.5-.23.5-.5V14.29h-1.01Z"/>
            </g>
          </g>
          <g>
            <g>
              <path class="cls-1" d="m24.31,82.05c5.47,3.82,5.49,10.02.07,13.84-5.43,3.82-14.27,3.82-19.73,0-5.47-3.82-5.49-10.02-.06-13.84,5.43-3.82,14.26-3.82,19.73,0Z"/>
              <g>
                <path class="cls-2" d="m28.95,85.45H0v2.5h0c.01,2.15,1.44,4.29,4.27,5.93,5.67,3.27,14.84,3.27,20.48,0,2.82-1.64,4.22-3.78,4.2-5.93h0v-2.5Z"/>
                <g>
                  <path class="cls-5" d="m24.68,79.52c5.67,3.27,5.7,8.59.07,11.86-5.63,3.27-14.81,3.27-20.48,0-5.67-3.27-5.7-8.58-.06-11.86,5.63-3.27,14.8-3.27,20.47,0Z"/>
                  <path class="cls-1" d="m14.52,92.32c-3.61,0-6.98-.8-9.49-2.25-2.27-1.31-3.51-2.96-3.52-4.64,0-1.67,1.23-3.31,3.46-4.6,2.5-1.45,5.86-2.25,9.46-2.25s6.98.8,9.49,2.25c2.27,1.31,3.52,2.96,3.52,4.65,0,1.67-1.22,3.3-3.45,4.6-2.5,1.45-5.86,2.25-9.47,2.25Z"/>
                  <path class="cls-2" d="m4.97,83.41c2.5-1.45,5.86-2.25,9.46-2.25s6.98.8,9.49,2.25c1.68.97,2.81,2.13,3.27,3.36.16-.43.25-.86.25-1.29,0-1.69-1.25-3.34-3.52-4.65-2.52-1.45-5.89-2.25-9.49-2.25s-6.97.8-9.46,2.25c-2.23,1.3-3.46,2.93-3.46,4.6,0,.43.09.86.25,1.29.46-1.21,1.56-2.35,3.21-3.31Z"/>
                  <path class="cls-4" d="m22.14,90.96c-.24-.17-.48-.34-.76-.5-1.84-1.06-4.3-1.65-6.94-1.65s-5.09.58-6.91,1.64c-.26.15-.49.31-.71.47,2.23.9,4.9,1.4,7.71,1.4s5.41-.48,7.62-1.36Z"/>
                </g>
              </g>
            </g>
            <g>
              <path class="cls-1" d="m28.57,84l-13.87-31.42c-.13-.3-.55-.3-.68,0L.38,84c-.11.26,0,.55.26.66.26.11.55,0,.66-.26l12.73-29.31c.13-.3.55-.3.68,0l12.94,29.31c.11.25.41.37.66.26h0c.25-.11.37-.41.26-.66Z"/>
              <path class="cls-1" d="m13.97,54.44v38.15c0,.28.23.5.5.5s.5-.23.5-.5v-38.15h-1.01Z"/>
            </g>
          </g>
          <g>
            <path class="cls-2" d="m53.7,86.22h-6.57v4.8h0c0,.49.33.97.97,1.35,1.29.74,3.37.74,4.65,0,.64-.37.96-.86.95-1.35h0v-4.8Z"/>
            <path class="cls-5" d="m52.73,84.87c1.29.74,1.29,1.95.02,2.69-1.28.74-3.36.74-4.65,0-1.29-.74-1.29-1.95-.01-2.69,1.28-.74,3.36-.74,4.65,0Z"/>
          </g>
          <path class="cls-1" d="m57.41,81.13c0,3.86-3.13,6.99-6.99,6.99s-6.99-3.13-6.99-6.99,3.13-24.71,6.99-24.71,6.99,20.85,6.99,24.71Z"/>
          <g>
            <path class="cls-2" d="m53.7,13.23h-6.57v47.72h0c0,.49.33.97.97,1.35,1.29.74,3.37.74,4.65,0,.64-.37.96-.86.95-1.35h0V13.23Z"/>
            <path class="cls-5" d="m52.73,11.88c1.29.74,1.29,1.95.02,2.69-1.28.74-3.36.74-4.65,0-1.29-.74-1.29-1.95-.01-2.69,1.28-.74,3.36-.74,4.65,0Z"/>
          </g>
          <g>
            <g>
              <path class="cls-5" d="m78.73,7.81s0,0,0,0c0-.01,0-.02,0-.03,0-.02,0-.04,0-.06,0-.02,0-.04,0-.06,0-.02,0-.04,0-.07,0-.02,0-.04,0-.07s0-.05.01-.07c0,0,0-.02,0-.02,0,0,0,0,0,0,0-.01,0-.03,0-.04,0-.03.01-.05.02-.08,0-.03.01-.05.02-.08,0-.03.02-.05.02-.08,0-.03.02-.06.03-.08,0-.02.01-.04.02-.06,0,0,0,0,0,0,0,0,0-.01,0-.02.01-.03.02-.06.03-.09.01-.03.02-.06.03-.09.01-.03.02-.06.04-.09.01-.03.03-.06.04-.09.02-.03.03-.07.05-.11,0,0,0,0,0,0,0,0,0,0,0,0,.02-.04.04-.08.06-.11.04-.08.09-.16.14-.24.03-.04.05-.09.08-.13,0-.01.02-.03.03-.04.01-.02.02-.03.03-.05.06-.09.13-.19.2-.28.05-.06.09-.12.14-.18,0,0,0,0,0,0,.03-.04.07-.08.1-.13.03-.04.07-.08.1-.12.04-.04.07-.08.11-.12.03-.03.05-.06.08-.08,0,0,0-.01.01-.01,0,0,.02-.02.03-.03.04-.04.09-.09.13-.13.05-.05.1-.09.14-.13.04-.04.08-.07.12-.11,0,0,0,0,.01-.01,0,0,.01-.01.02-.02.05-.05.11-.09.16-.13.06-.04.11-.09.17-.13.03-.02.06-.05.1-.07.01,0,.02-.01.03-.02.02-.01.03-.02.05-.04.06-.04.13-.08.19-.12.07-.04.13-.08.2-.12.02,0,.03-.02.05-.03.05-.03.11-.06.17-.09.07-.04.14-.08.22-.11.08-.04.16-.08.24-.11,0,0,.01,0,.02,0,0,0,.01,0,.02,0,.07-.03.13-.06.2-.09.09-.04.18-.07.27-.1.05-.02.1-.03.16-.05.02,0,.03-.01.05-.02.02,0,.05-.02.07-.02.1-.03.2-.06.3-.08.08-.02.17-.04.25-.06.01,0,.03,0,.04,0,0,0,.02,0,.03,0,.11-.02.22-.04.34-.06.08-.01.16-.02.23-.02.02,0,.05,0,.07,0,.02,0,.03,0,.05,0,.13,0,.26-.01.38-.01.04,0,.08,0,.12,0,.04,0,.09,0,.13,0,.05,0,.11,0,.16,0,.1,0,.2.03.3.04.03,0,.07,0,.1.01.01,0,.02,0,.03,0,.17.03.34.08.49.13,0,0,0,0,0,0,.18.06.35.14.51.23l1.73,1c-.16-.09-.33-.17-.51-.23-.17-.06-.35-.11-.53-.14-.03,0-.07,0-.1-.01-.15-.02-.3-.04-.46-.05-.04,0-.09,0-.13,0-.18,0-.37,0-.55.01-.02,0-.05,0-.07,0-.2.02-.4.05-.6.09-.01,0-.03,0-.04,0-.21.04-.41.1-.62.16-.02,0-.03.01-.05.02-.21.07-.42.15-.62.24,0,0-.01,0-.02,0-.22.1-.43.2-.64.33-.16.1-.33.2-.48.31-.01,0-.02.02-.03.02-.15.11-.31.23-.45.35,0,0,0,0-.01.01-.15.13-.29.26-.43.4,0,0,0,.01-.01.02-.14.14-.27.3-.4.45-.14.18-.26.35-.37.52,0,.01-.02.03-.03.04-.11.17-.2.33-.28.49,0,0,0,0,0,0-.08.17-.15.32-.21.48,0,0,0,0,0,0-.05.15-.09.29-.12.43,0,0,0,0,0,0-.03.13-.04.26-.04.38h0c0,.12.01.23.03.32,0,0,0,0,0,0,.02.09.06.17.1.24.05.07.11.13.18.17l-1.73-1c-.07-.04-.13-.1-.18-.17,0,0,0,0,0,0-.02-.02-.03-.05-.04-.08,0-.02-.02-.04-.03-.06,0-.02-.01-.04-.02-.06,0-.01,0-.02,0-.04,0,0,0,0,0,0,0,0,0,0,0-.01,0-.02,0-.04-.01-.06,0-.02,0-.04,0-.06,0-.02,0-.04,0-.05,0-.02,0-.04,0-.06,0-.02,0-.04,0-.06,0,0,0-.02,0-.02Z"/>
              <path class="cls-5" d="m51.15,16.73s0,0,0,0c0,0,0,0,0,0,.06-.03.12-.07.17-.1.19-.11.39-.22.58-.33.1-.05.19-.1.29-.15.09-.05.19-.1.28-.15.06-.03.13-.07.19-.1.19-.09.37-.18.55-.26.06-.03.13-.06.19-.09.02,0,.03-.02.05-.02.28-.12.56-.24.83-.35.02,0,.04-.01.05-.02.09-.04.19-.07.28-.11.18-.07.36-.14.55-.21.04-.01.08-.03.12-.04.14-.05.28-.09.43-.14.13-.04.26-.09.39-.13.05-.01.1-.03.15-.04.18-.05.37-.1.55-.15.11-.03.23-.07.34-.09.04,0,.08-.02.12-.03.27-.07.54-.13.81-.18.07-.02.15-.04.22-.05.01,0,.02,0,.04,0,.4-.08.79-.14,1.18-.19.03,0,.07-.01.1-.02.06,0,.11,0,.17-.02.44-.06.87-.1,1.3-.13.03,0,.07,0,.1-.01.02,0,.03,0,.05,0,.22-.01.43-.02.65-.03.11,0,.21-.01.32-.02.29,0,.57-.01.85-.01.03,0,.07,0,.1,0,0,0,0,0,0,0,.44,0,.86.02,1.29.03.1,0,.19,0,.29.01.41.02.82.05,1.23.09.01,0,.03,0,.04,0,.26.02.51.05.76.08.64.07,1.28.15,1.94.22.59.07,1.18.13,1.78.19.09,0,.18.02.28.02.3.03.61.05.92.07.09,0,.18.01.27.02.38.02.76.03,1.15.03.07,0,.15,0,.22,0,.4,0,.81-.01,1.22-.04.08,0,.15,0,.23-.01.35-.03.7-.06,1.05-.11.32-.04.64-.09.96-.16.01,0,.02,0,.03,0,.29-.06.58-.12.88-.2.07-.02.15-.04.22-.06.23-.06.47-.13.7-.21.07-.02.14-.05.22-.07.29-.1.58-.2.87-.32.04-.02.09-.04.13-.05.29-.12.59-.25.88-.4.02,0,.04-.02.05-.02.33-.16.67-.34,1.01-.54.24-.14.48-.28.72-.44.04-.03.09-.06.13-.09.22-.14.43-.29.65-.44.07-.05.14-.1.2-.15.08-.06.16-.12.25-.19.02-.02.04-.03.06-.05.09-.07.19-.15.28-.23.06-.05.12-.1.18-.16.03-.02.05-.05.08-.07.08-.07.16-.15.24-.22.02-.02.04-.04.05-.05.06-.06.12-.12.18-.18.02-.02.03-.04.05-.05.07-.07.14-.15.21-.23.01-.01.02-.02.03-.03.07-.08.14-.16.2-.25,0,0,.01-.02.02-.03.05-.07.1-.14.16-.21.02-.03.04-.06.06-.09.06-.09.12-.18.17-.27,0,0,0,0,0,0,.06-.1.11-.2.16-.29,0,0,0,0,0-.01.05-.1.1-.21.14-.31,0,0,0,0,0-.01.04-.11.08-.21.11-.32,0,0,0,0,0,0,.03-.11.06-.22.08-.33,0,0,0,0,0-.01.02-.11.04-.22.05-.33,0,0,0,0,0,0,.01-.12.02-.23.02-.35,0-.18-.02-.35-.06-.5,0,0,0,0,0,0-.03-.14-.08-.28-.15-.39,0-.01-.01-.02-.02-.03-.05-.09-.11-.16-.17-.23-.03-.03-.05-.06-.08-.09-.09-.09-.18-.16-.29-.22h0s0,0,0,0l1.73,1c.11.06.2.14.29.22.03.03.05.06.08.09.04.05.09.09.12.15.02.03.03.06.05.09,0,.01.01.02.02.03,0,.01.02.03.02.04.02.04.04.09.06.13.01.04.03.08.04.12,0,.03.02.07.03.1,0,0,0,0,0,0,0,0,0,0,0,0,0,.03.01.07.02.1,0,.03.01.07.02.1,0,.03,0,.07.01.1,0,.03,0,.06,0,.1,0,.03,0,.06,0,.09h0s0,.08,0,.12c0,.04,0,.07,0,.11,0,.04,0,.07,0,.11,0,0,0,0,0,.01,0,0,0,0,0,0,0,.03,0,.05,0,.08,0,.03,0,.07-.01.1,0,.03-.01.07-.02.1,0,.02,0,.04-.01.05,0,0,0,0,0,.01,0,.01,0,.02,0,.03,0,.03-.01.07-.02.1,0,.03-.02.06-.03.1s-.02.06-.03.1c0,0,0,0,0,0,0,0,0,0,0,0,0,.03-.02.06-.03.09,0,.03-.02.06-.03.09-.01.03-.02.06-.03.09,0,.02-.01.04-.02.06,0,0,0,0,0,.01,0,0,0,.02,0,.02-.01.03-.03.06-.04.09-.01.03-.03.06-.04.09-.02.03-.03.07-.05.1,0,0,0,0,0,0,0,0,0,0,0,.01-.02.03-.03.07-.05.1-.03.06-.07.13-.11.19,0,0,0,0,0,.01,0,0,0,0,0,0-.04.07-.09.15-.14.22,0,.01-.02.03-.03.04-.02.03-.04.06-.06.09-.02.03-.05.07-.07.1-.03.04-.06.07-.08.11,0,.01-.02.02-.02.03,0,0,0,.01-.01.02-.04.05-.08.1-.12.14-.02.03-.05.06-.07.08-.01.01-.02.02-.03.03,0,0-.02.02-.02.03-.05.05-.09.1-.14.15-.01.02-.03.03-.04.05-.02.02-.04.04-.05.06-.02.02-.04.04-.06.07-.04.04-.08.08-.12.12-.02.02-.04.04-.05.05,0,0-.01.01-.02.02-.07.07-.15.14-.22.2,0,0,0,0,0,0-.04.04-.08.07-.12.11-.04.04-.09.08-.13.12,0,0,0,0,0,0-.09.08-.19.16-.28.23,0,0,0,0,0,0-.02.01-.03.02-.05.04-.08.07-.17.13-.25.19-.01,0-.02.02-.03.03-.06.04-.11.08-.17.12-.09.07-.19.13-.28.2-.12.09-.25.17-.37.25-.04.03-.09.06-.13.09-.02,0-.03.02-.05.03-.18.12-.36.23-.54.33-.04.02-.08.05-.13.07-.14.08-.28.16-.42.24-.19.1-.37.2-.56.29,0,0-.02,0-.03.01-.02,0-.04.02-.06.03-.16.08-.32.16-.49.23-.13.06-.26.11-.39.17-.04.02-.09.04-.13.05-.03.01-.05.02-.08.03-.21.08-.42.16-.63.24-.05.02-.11.03-.16.05-.07.02-.15.05-.22.07-.1.03-.19.06-.29.09-.14.04-.28.08-.41.11-.07.02-.15.04-.22.06-.03,0-.06.02-.09.03-.26.06-.52.12-.78.17-.01,0-.03,0-.04,0,0,0,0,0,0,0-.32.06-.63.11-.95.16,0,0,0,0,0,0-.35.05-.71.08-1.05.11-.02,0-.05,0-.07,0-.05,0-.1,0-.15,0-.41.03-.82.04-1.22.04-.04,0-.09,0-.14,0-.03,0-.05,0-.08,0-.39,0-.77-.01-1.15-.03-.09,0-.18-.01-.27-.02-.31-.02-.61-.04-.92-.07-.05,0-.11,0-.16-.01-.04,0-.08,0-.11-.01-.6-.06-1.19-.12-1.78-.19-.65-.08-1.3-.16-1.94-.22-.27-.03-.53-.05-.8-.08-.4-.04-.81-.06-1.23-.09-.1,0-.19,0-.29-.01-.43-.02-.86-.03-1.29-.03-.04,0-.07,0-.11,0-.28,0-.56,0-.85.01-.11,0-.22.01-.34.02-.21,0-.42.02-.64.03-.05,0-.1,0-.15.01-.43.03-.86.08-1.3.13-.09.01-.18.02-.27.03-.39.05-.79.12-1.18.19-.09.02-.18.04-.27.06-.27.06-.54.11-.81.18-.15.04-.3.08-.46.12-.18.05-.37.1-.55.15-.18.05-.36.11-.54.17-.14.05-.28.09-.43.14-.22.08-.44.16-.67.24-.09.04-.19.07-.28.11-.31.12-.62.26-.94.4-.06.03-.13.06-.19.09-.25.11-.5.24-.75.36-.09.05-.19.1-.28.15-.29.15-.58.31-.87.48-.06.04-.13.07-.19.11-.05.03-.2.11-.37.21-.29.17-.63.37-.66.38l-1.73-1s.91-.52,1.03-.6Z"/>
              <polygon class="cls-1" points="51.84 18.34 50.12 17.33 50.13 23.93 51.86 24.94 51.84 18.34"/>
              <path class="cls-2" d="m53.07,17.63c-.06.04-.13.07-.19.11-.13.07-.99.57-1.03.6l.02,6.6c.07-.04.65-.37,3.01-1.74,3.27-1.89,6.62-2.53,9.77-3.4,3.56-.99,7.09-1.82,10.58-2.51,2.51-.49,5.53-.88,8.38-2.53,1.41-.81,2.77-1.93,4.01-3.52.87-1.11,1.58-2.47,1.82-3.74.66-3.57-3.19-4.28-6.11-2.6-.68.39-1.31.92-1.82,1.56-1.63,2.06-1.23,3.81.3,2.92.51-.3,1.15-.88,1.88-1.85.37-.48.8-.85,1.24-1.11,1.48-.85,3.12-.44,3.13,1.27.01,1.92-1.65,3.48-3.02,4.45-.51.36-1.01.68-1.5.97-5.48,3.16-10.43,2.14-14.99,1.65-4.65-.5-9.96-.32-15.48,2.86Z"/>
            </g>
            <g>
              <path class="cls-1" d="m45.49,13.36h9.7v12.14h0c0,.72-.48,1.44-1.43,1.99-1.9,1.1-4.97,1.1-6.86,0-.94-.55-1.41-1.27-1.41-1.99h0v-12.14Z"/>
              <path class="cls-5" d="m46.92,11.38c-1.9,1.1-1.91,2.88-.02,3.97,1.89,1.1,4.96,1.1,6.86,0,1.9-1.1,1.91-2.88.02-3.97-1.89-1.1-4.96-1.1-6.85,0Z"/>
            </g>
            <polygon class="cls-4" points="48.71 18.26 48.71 26.01 45.84 24.35 45.84 16.6 48.71 18.26"/>
            <g>
              <path class="cls-5" d="m11.58,50.93s.04.01.06.02c.08.02.16.04.24.04,0,0,0,0,.01,0,.09,0,.18,0,.28,0,0,0,.01,0,.02,0,.09,0,.19-.02.28-.03.02,0,.03,0,.05,0,.09-.02.19-.04.29-.06.02,0,.05-.01.07-.02.08-.02.16-.05.24-.07.03,0,.06-.02.09-.03.08-.03.16-.06.24-.09.03-.01.05-.02.08-.03.11-.04.21-.09.32-.13.23-.1.46-.21.69-.33.06-.03.12-.06.18-.09.22-.11.43-.23.64-.35.31-.18.62-.38.93-.58.06-.04.11-.08.17-.11.3-.2.59-.4.88-.62.05-.04.11-.08.16-.12.24-.18.49-.38.73-.57.09-.07.17-.14.26-.21.23-.2.47-.4.7-.6.07-.06.14-.12.21-.18.31-.28.62-.56.92-.85.09-.09.19-.19.28-.28.22-.22.44-.43.66-.66.33-.34.66-.68.99-1.04.04-.04.08-.09.12-.13.33-.35.65-.71.97-1.08.1-.11.19-.22.29-.33.42-.48.84-.98,1.26-1.48.03-.04.06-.07.09-.11.43-.51.85-1.03,1.27-1.55.1-.12.2-.24.29-.37.4-.51.81-1.01,1.21-1.52.07-.09.14-.18.21-.27.33-.42.66-.84.99-1.26.24-.3.47-.6.71-.9.09-.11.18-.23.27-.34.12-.16.25-.31.37-.47.73-.92,1.47-1.84,2.23-2.75.03-.04.07-.08.1-.12.03-.04.06-.07.09-.11.54-.64,1.08-1.28,1.63-1.91.04-.05.09-.1.13-.15.04-.04.07-.08.11-.12.45-.51.91-1.02,1.37-1.52.03-.04.07-.07.1-.11.06-.06.12-.13.18-.19.35-.37.7-.74,1.05-1.1.06-.07.13-.13.19-.2.03-.03.06-.06.09-.09.39-.4.78-.78,1.17-1.16.01-.01.03-.03.04-.04.07-.06.14-.13.2-.19.29-.27.58-.54.87-.81.05-.04.1-.09.15-.14.09-.08.19-.16.28-.24.21-.19.42-.37.63-.55.07-.06.14-.12.21-.18.09-.07.18-.14.26-.22.18-.15.35-.29.53-.43.08-.06.16-.13.24-.2.09-.07.19-.14.28-.21.15-.12.3-.23.45-.34.08-.06.15-.12.23-.17.12-.09.24-.17.35-.25.12-.09.25-.18.37-.26.05-.04.11-.08.16-.11.19-.13.39-.26.58-.39.06-.04.13-.09.19-.13.02,0,.03-.02.04-.03.26-.16.52-.32.78-.48.06-.03.12-.07.18-.1l.86.5-.86-.5c.06-.03.12-.07.18-.1.04-.02.17-.1.32-.18.31-.18.69-.4.71-.41l1.73,1s-.4.24-.71.41c-.15.09-.28.16-.32.18-.06.03-.12.07-.18.1h0c-.33.19-.67.4-1,.61-.07.04-.13.09-.2.13-.25.16-.49.33-.74.5-.12.09-.25.18-.37.26-.19.14-.39.28-.58.42-.15.11-.3.23-.45.34-.17.13-.35.27-.52.41-.18.14-.35.29-.53.43-.16.13-.32.26-.47.4-.21.18-.42.36-.63.55-.14.13-.28.25-.42.38-.29.26-.58.53-.87.81-.08.08-.17.15-.25.23-.39.38-.78.77-1.17,1.16-.09.1-.19.19-.28.29-.35.36-.7.72-1.04,1.1-.09.1-.19.2-.28.3-.46.5-.91,1-1.37,1.51-.08.09-.16.18-.24.28-.55.63-1.09,1.27-1.63,1.91-.06.08-.13.15-.19.23-.76.91-1.5,1.83-2.23,2.75-.21.27-.43.55-.65.82-.23.29-.46.59-.69.88-.33.42-.66.84-.99,1.26-.07.09-.14.17-.21.26,0,0,0,.01-.01.02-.4.51-.8,1.01-1.21,1.52-.1.12-.19.24-.29.36-.42.52-.84,1.04-1.27,1.55,0,.01-.02.02-.03.03-.02.03-.04.05-.07.08-.42.5-.84.99-1.26,1.48-.06.07-.11.13-.17.2-.04.04-.07.08-.11.12-.32.37-.65.73-.98,1.09-.03.04-.06.07-.1.11,0,0,0,.01-.01.02-.33.35-.66.7-.99,1.04,0,0-.01.02-.02.02-.22.22-.44.44-.66.65-.09.09-.18.18-.27.26,0,0,0,0,0,0-.29.27-.57.54-.86.8-.02.02-.03.03-.05.04-.07.06-.14.12-.21.18-.18.16-.35.31-.53.46-.06.05-.12.09-.17.14-.09.07-.17.14-.26.21-.1.08-.19.16-.29.24-.15.11-.29.22-.44.33-.05.04-.11.08-.16.12-.02.02-.05.04-.07.05-.21.15-.42.3-.63.45-.06.04-.12.08-.18.12-.06.04-.12.08-.17.11-.08.05-.16.11-.24.16-.19.12-.37.23-.56.34-.04.03-.09.05-.13.08-.14.08-.28.16-.41.23-.08.04-.15.08-.23.12-.06.03-.12.06-.18.09-.04.02-.08.04-.12.06-.17.09-.35.17-.52.24-.02,0-.03.01-.05.02-.1.04-.2.09-.3.13,0,0-.01,0-.02,0-.03.01-.05.02-.08.03-.06.02-.13.05-.19.07-.02,0-.03,0-.05.02-.03.01-.06.02-.09.03-.04.01-.08.03-.12.04-.04.01-.08.02-.12.03-.02,0-.05.01-.07.02-.01,0-.03,0-.04.01-.07.02-.14.03-.21.05-.01,0-.03,0-.04,0-.02,0-.03,0-.05,0-.03,0-.07.01-.1.02-.06,0-.12.01-.18.02,0,0,0,0-.01,0,0,0-.01,0-.02,0-.05,0-.09,0-.14,0-.05,0-.1,0-.14,0,0,0,0,0-.01,0,0,0,0,0,0,0-.06,0-.11-.01-.16-.02-.02,0-.05-.01-.07-.02-.02,0-.04,0-.06-.02-.02,0-.03,0-.05-.01-.06-.02-.12-.05-.18-.08l-1.73-1c.07.04.14.07.22.09Z"/>
              <path class="cls-5" d="m9.35,50.25s0-.09,0-.13c0-.04,0-.09,0-.13,0-.05,0-.09.01-.14,0-.02,0-.04,0-.05,0,0,0-.01,0-.02,0-.02,0-.05,0-.07,0-.05.01-.09.02-.14,0-.05.02-.1.03-.16.01-.05.02-.11.03-.16,0-.03.01-.06.02-.09,0,0,0-.01,0-.02,0-.02,0-.04.01-.06.01-.06.03-.12.05-.18.02-.06.03-.12.05-.18.02-.06.04-.12.06-.19,0-.01.01-.03.02-.04,0,0,0-.01,0-.02.01-.04.03-.08.04-.13.02-.06.05-.13.07-.19s.05-.13.08-.2c.02-.05.04-.09.06-.14,0,0,0-.02.01-.03,0-.02.01-.03.02-.05.03-.07.07-.15.1-.22.04-.08.08-.17.12-.25.02-.04.05-.09.07-.13.01-.02.02-.05.03-.07.02-.04.04-.07.06-.11.09-.17.19-.35.3-.52,0,0,0-.01.01-.02.15-.25.31-.5.48-.75,0,0,.01-.02.02-.03.13-.2.27-.39.42-.59,0,0,.01-.01.02-.02.01-.02.03-.04.04-.06.09-.12.18-.23.27-.35.06-.07.12-.14.17-.21.02-.03.05-.06.07-.09.02-.02.04-.05.06-.07.1-.12.2-.24.31-.36.04-.04.07-.08.11-.12.03-.03.06-.07.09-.1.04-.04.08-.09.12-.13.11-.12.22-.23.33-.34.02-.02.03-.03.05-.05.03-.03.05-.05.08-.07.07-.07.14-.14.21-.21.1-.09.19-.18.29-.27,0,0,.02-.02.03-.03,0,0,0,0,.01-.01.11-.1.22-.19.33-.29.06-.05.12-.1.19-.15.02-.02.04-.03.06-.05.02-.01.03-.03.05-.04.09-.07.19-.15.28-.22.06-.05.12-.09.18-.13.01,0,.03-.02.04-.03.01,0,.02-.02.04-.03.08-.05.16-.11.23-.15.07-.05.15-.09.22-.14.02-.01.03-.02.05-.03.05-.03.1-.06.15-.09.06-.03.12-.07.19-.1.05-.03.1-.05.15-.07,0,0,0,0,.01,0,0,0,0,0,0,0,.05-.02.11-.05.16-.07.05-.02.1-.04.15-.06.05-.02.1-.03.14-.05,0,0,0,0,0,0h0s.1-.03.14-.04c.05-.01.09-.02.14-.03s.09-.02.13-.02c0,0,.02,0,.02,0,0,0,0,0,.01,0,.03,0,.06,0,.09,0,.04,0,.09,0,.13,0,.05,0,.09,0,.14,0,.01,0,.02,0,.03,0,.05,0,.1.01.14.02.04,0,.07.02.11.03.02,0,.04.01.06.02,0,0,.02,0,.03,0,.07.03.14.06.2.09l1.73,1c-.07-.04-.14-.07-.23-.1-.02,0-.04-.01-.06-.02-.08-.02-.16-.04-.25-.05-.13-.01-.26-.01-.4,0,0,0,0,0-.01,0-.14.02-.29.05-.44.09,0,0,0,0,0,0-.15.05-.31.11-.47.18,0,0,0,0,0,0-.16.07-.33.16-.49.25-.18.1-.36.22-.54.35-.01,0-.03.02-.04.03-.17.12-.35.25-.52.39-.02.02-.04.03-.06.05-.18.14-.35.29-.53.45-.01,0-.02.02-.03.03-.17.15-.33.31-.5.48-.02.02-.05.05-.07.07-.17.17-.33.34-.49.52-.03.03-.06.07-.09.1-.16.18-.32.36-.47.55-.02.03-.05.06-.07.09-.15.19-.3.37-.44.57-.01.02-.03.03-.04.05-.16.21-.31.42-.45.64-.17.25-.33.5-.48.75-.13.22-.25.43-.36.65-.01.02-.02.05-.03.07-.11.22-.22.44-.31.65,0,0,0,.02-.01.03-.1.22-.18.44-.26.66,0,0,0,.01,0,.02-.07.22-.14.43-.19.65,0,0,0,.01,0,.02-.05.21-.09.42-.11.62,0,0,0,.01,0,.02-.02.2-.03.4-.02.59,0,0,0,0,0,0,0,.19.03.37.08.55.04.15.09.29.15.43,0,0,0,.02.01.03.05.11.11.21.18.3.06.09.12.16.19.24.03.03.06.07.1.11.11.1.22.19.35.26l-1.73-1c-.13-.07-.24-.16-.35-.26-.03-.03-.06-.07-.1-.11-.07-.07-.14-.15-.19-.24-.01-.02-.03-.03-.04-.05-.05-.07-.09-.15-.13-.23,0,0,0-.02-.01-.03,0,0,0-.02-.01-.03-.02-.05-.04-.09-.06-.14-.02-.05-.04-.11-.06-.17-.01-.04-.02-.08-.03-.12,0-.01,0-.02,0-.03,0-.04-.02-.09-.03-.13s-.01-.09-.02-.13c0-.04-.01-.09-.01-.14,0-.04,0-.08,0-.12,0,0,0,0,0,0,0,0,0,0,0,0,0-.04,0-.08,0-.13Z"/>
              <path class="cls-2" d="m47.48,20.1c-5.53,3.19-10.82,9.13-15.46,15-4.54,5.74-9.47,12.48-14.95,15.64-.5.29-1,.55-1.51.77-1.37.61-3.04.97-3.03-.96,0-1.72,1.63-4.02,3.11-4.87.44-.26.87-.38,1.24-.32.73.12,1.37-.03,1.88-.33,1.54-.89,1.92-3.08.29-3.26-.51-.06-1.14.15-1.82.54-2.92,1.69-6.75,6.83-6.07,9.63.24,1,.96,1.54,1.83,1.64,1.24.15,2.61-.31,4.02-1.12,2.85-1.64,5.86-4.74,8.37-7.14,3.48-3.35,7.01-6.58,10.56-9.7,3.14-2.77,6.48-5.98,9.76-7.87,2.36-1.37,2.94-1.7,3.01-1.74l-.02-6.6s-.4.24-.71.41c-.15.09-.28.16-.32.18-.06.03-.12.07-.18.1Z"/>
            </g>
          </g>
          <g>
            <path class="cls-2" d="m52.64,9.95h-4.45v3.25h0c0,.33.22.66.66.91.87.5,2.28.5,3.15,0,.43-.25.65-.58.65-.91h0v-3.25Z"/>
            <path class="cls-5" d="m51.98,9.04c.87.5.88,1.32.01,1.82-.87.5-2.27.5-3.15,0-.87-.5-.88-1.32,0-1.82.86-.5,2.27-.5,3.14,0Z"/>
          </g>
          <path class="cls-1" d="m53.95,8.76c0,1.37-1.58,2.48-3.54,2.48s-3.54-1.11-3.54-2.48,1.58-8.76,3.54-8.76,3.54,7.39,3.54,8.76Z"/>
        </g>
      </g>
    </g>
  </g>
</svg>