<?xml version="1.0" encoding="UTF-8"?>
<svg id="Capa_2" data-name="Capa 2" xmlns="http://www.w3.org/2000/svg" viewBox="0 0 440.58 365.52">
  <defs>
    <style>
      .cls-1 {
        fill: #a54187;
      }

      .cls-2 {
        fill: #437fa3;
      }

      .cls-3 {
        fill: #ed7cc4;
      }

      .cls-4 {
        fill: #447fa3;
      }

      .cls-5 {
        fill: #97d3ff;
      }
    </style>
  </defs>
  <g id="OBJECTS">
    <g>
      <g>
        <path class="cls-3" d="m178.44,90.99c1.07-13.65-.09-28.48-5.15-41.51,2.18-14.36.91-32.28-13.36-35.33-7.19-1.54-12.81,3.32-16.81,8.95-.95-2.79-2.18-5.51-3.73-7.98-1.52-3.01-3.44-5.7-5.87-7.73-4.07-3.4-8.61-3.9-12.81-2.61-3.26.66-6.01,2.62-8.3,5.26-1.33,1.36-2.5,2.89-3.45,4.5-1.69-2.6-3.78-4.94-6.2-6.86C98.73,2.74,93.49-.48,86.75.06c-6.82.55-11.17,4.53-13.94,10.02-1.87,1.68-3.45,3.71-4.63,5.94-1.38,2.61-2.39,5.5-3.11,8.53-4.22-3.57-9.81-7.1-15.36-7.08-7.98.04-12.13,6.19-14.06,13.13-3.18,11.46-2.62,24.26.92,35.57.31,1,.66,2.02,1.04,3.06-9.77,4.56-18.55,11.59-21.52,22.44-3.43,12.5,3.92,25.25,13.73,32.59,5.33,3.99,11.22,6.92,17.27,9.65,6.55,2.96,13.93,7.57,21.07,8.99.48.26.96.51,1.46.74.28,1.47.56,2.94.84,4.41.48,17.45,1.44,34.89,2.92,52.29.78,9.21.97,19.88,3.24,29.64l12.16,111.2s52.23,19.72,100.89-8.46l-15.8-131.65c-.56-7.88-1.21-15.77-2.34-23.59-.46-3.14-1.01-6.26-1.61-9.38v-.09s-.02,0-.02,0c-2.06-10.72-4.69-21.36-6.03-32.18,8.22-13.67,13.3-28.66,14.57-44.84Z"/>
        <path class="cls-1" d="m174.22,36.59c-.29-.87-1.56-.61-1.56.29-.02,10.47-3.22,22.76-8.77,31.69-2.88,4.64-7.65,7.98-13.27,7.69-5.86-.29-7.94-4.29-10.19-8.92-.1-.2-.22-.36-.37-.49,2.26-5.98,3.14-12.6,3.68-18.8.85-9.76.98-20.58-2.43-29.9-.26-.72-1.23-.48-1.27.23-.37,6.65.12,13.29-.35,19.95-.5,7.09-1.78,14.08-3.56,20.96-1.29,4.99-3.08,10.4-7.1,13.88-6.68,5.77-13.36-2.03-16.49-7.56-.1-.19-.23-.34-.36-.47,2.06-8.56,1.81-17.73,1.42-26.43-.23-5.17-.66-10.35-1.43-15.47-.54-3.61-.72-8.61-3.57-11.16-.44-.4-1.07-.14-1.24.39-.87,2.85.47,6.45.95,9.3.56,3.35.97,6.73,1.21,10.12.57,7.97.22,15.96-.86,23.88-.92,6.81-2.16,15.05-8,19.5-2.56,1.95-6.86,3.43-10.62,3.55.31-.46.62-.91.91-1.39,4.75-7.92,5.76-24.51-2.29-30.97.37-1.11-.92-2.4-2.05-1.95-3.2,1.28-6.11,3.23-9.18,4.88-1.22-4.71-2.25-9.37-4.03-13.91-1.43-3.66-3.15-9.33-6.36-11.85-2.07-1.62-4.84.16-4.21,2.72,1.51,6.09,5.13,11.81,6.85,17.93.66,2.34,1.48,4.91,2.27,7.59-2.74,1.09-5.52,2.08-8.27,3.11-8.25,3.1-15.39,7.31-22.96,11.74-.26.15-.53.3-.8.45-1.75-4.39-2.44-9.25-3.05-13.86-.66-5-.54-10.41-3.01-14.91-.07-.13-.28-.11-.34.02-3.09,6.41-1.02,15.04.14,21.75.53,3.04,1.24,6.09,2.35,8.96-5.76,2.64-11.68,4.72-15.95,9.82-4.46,5.32-6.85,12.22-7.04,19.13-.45,16.4,11.49,30.11,24.86,38,7.61,4.49,16.04,7.56,24.46,10.12,4.39,1.34,8.84,2.5,13.32,3.48,4.31.94,8.7,2.3,13.07,1.35,2.18-.47,2.06-3.55.37-4.5-3.56-2-8.1-2.11-12.07-2.96-3.85-.82-7.67-1.77-11.45-2.87-7.74-2.24-15.4-4.96-22.5-8.78-13.44-7.24-26.71-21.34-23.52-37.9,1.41-7.34,5.76-13.58,12.57-16.78,6.9-3.25,13.1-6.85,19.63-10.82,6.78-4.13,14.21-6.63,21.48-9.72,4.41-1.87,9.57-3.97,13.15-7.41,1.2,4.41,3.01,8.4,3.16,13.23.18,5.97-1.57,11.3-5.61,15.74-3.57,3.92-8.17,6.6-12.97,8.75-3.75,1.68-7.95,2.15-10.34,5.64-.67.99.19,2.25,1.17,2.52,4.78,1.31,11.49-2.65,16.02-5.44,9.08.16,18.08,2.22,25.87,7.13,4.74,2.99,8.84,7.09,11.76,11.88,3.14,5.14,3.37,12.11,7.06,16.73,1.34,1.67,4.2,1.49,4.72-.85,1.36-6.16-1.95-13.9-5.03-19.18-3.28-5.63-8.62-10.12-14.14-13.48-7.19-4.38-15.53-6.84-23.85-6.72,1.56-1.33,3.01-2.78,4.31-4.37-.72,1.19-1.61,2.3-2.62,3.3,2.37.47,4.91.48,7.43,0,7.52-1.4,12.81-5.29,16.05-11.36,2.32,4.03,7.48,7.25,11.22,8.44,6.84,2.17,13.11-2.99,16.55-8.51,1.34,3.45,4.41,6.37,7.64,8.01,5.92,3.01,12.9,1.54,18.11-2.24,5.85-4.25,8.74-11.02,10.86-17.71,2.67-8.4,3.27-15.82.44-24.22Z"/>
      </g>
      <g>
        <g>
          <path class="cls-5" d="m414.65,95.66c-2.44-10.98-10.87-18.43-20.41-23.46.43-1.01.82-2.02,1.18-3,4.08-11.12,5.27-23.88,2.64-35.48-1.59-7.03-5.44-13.38-13.41-13.8-5.54-.29-11.3,2.97-15.68,6.33-.57-3.06-1.44-5.99-2.69-8.67-1.07-2.29-2.55-4.39-4.33-6.16-2.49-5.61-6.65-9.8-13.44-10.68-6.7-.87-12.1,2.1-16.35,6.83-2.51,1.81-4.71,4.04-6.53,6.55-.88-1.66-1.97-3.24-3.23-4.66-2.17-2.75-4.82-4.84-8.04-5.66-4.12-1.49-8.68-1.21-12.92,1.99-2.53,1.91-4.57,4.5-6.23,7.44-1.67,2.39-3.02,5.06-4.11,7.8-3.72-5.81-9.1-10.95-16.36-9.76-14.97,2.45-16.69,21.62-14.87,36.33.14,2.67.48,5.38.97,8.05-2.58,7.57-4.62,15.28-5.89,23.23-1.68,10.44-3.26,21.54-2.05,32.1,1.13,9.87,4.76,18.99,10.92,26.81.02.03.05.06.07.09-2.53,12.06-11.45,53.49-12.49,62.29-.09.76-.18,1.53-.26,2.3l-15.7,138.06s39.72,26.86,89.97,14.55c0,0,25.33-143.1,26.75-153.66.25-1.86.47-3.72.71-5.58l.09-.5h-.02c1.94-15.29,3.51-30.63,4.68-46,.34-1.46.7-2.91,1.05-4.37.51-.21,1.01-.43,1.5-.67,7.2-1.07,14.8-5.32,21.48-7.96,6.17-2.43,12.2-5.08,17.71-8.8,10.15-6.86,18.11-19.23,15.29-31.89Z"/>
          <path class="cls-2" d="m259.38,32.99c.34-.86,1.58-.53,1.54.36-.48,10.46,2.12,22.89,7.23,32.08,2.65,4.77,7.26,8.34,12.88,8.33,5.86-.01,8.14-3.9,10.62-8.42.1-.19.24-.35.4-.47-1.97-6.08-2.53-12.74-2.77-18.96-.38-9.79.02-20.61,3.87-29.75.3-.71,1.25-.42,1.25.29.04,6.66-.77,13.27-.62,19.95.16,7.1,1.1,14.15,2.54,21.1,1.04,5.04,2.57,10.54,6.42,14.2,6.39,6.09,13.45-1.38,16.84-6.75.11-.18.24-.32.38-.45-1.65-8.65-.95-17.8-.14-26.47.48-5.15,1.16-10.31,2.17-15.38.72-3.58,1.13-8.57,4.1-10.97.46-.37,1.08-.09,1.22.45.73,2.89-.79,6.42-1.4,9.25-.72,3.32-1.29,6.68-1.7,10.05-.95,7.94-.99,15.93-.3,23.89.59,6.85,1.43,15.14,7.05,19.86,2.46,2.07,6.69,3.76,10.44,4.06-.29-.47-.57-.94-.84-1.43-4.36-8.14-4.57-24.76,3.79-30.83-.32-1.12,1.04-2.36,2.14-1.85,3.13,1.44,5.95,3.52,8.93,5.31,1.44-4.64,2.7-9.24,4.7-13.7,1.61-3.59,3.6-9.17,6.92-11.52,2.15-1.52,4.83.4,4.07,2.92-1.81,6.01-5.69,11.55-7.71,17.58-.77,2.3-1.71,4.83-2.63,7.47,2.68,1.22,5.41,2.34,8.11,3.51,8.09,3.49,15.02,8.05,22.37,12.84.26.17.52.32.78.49,1.96-4.3,2.88-9.13,3.72-13.7.91-4.96,1.04-10.37,3.73-14.75.08-.13.29-.1.34.03,2.77,6.55.29,15.07-1.2,21.71-.68,3.02-1.54,6.02-2.79,8.84,5.62,2.92,11.44,5.28,15.46,10.58,4.2,5.53,6.25,12.54,6.11,19.45-.34,16.4-12.94,29.52-26.67,36.75-7.82,4.11-16.38,6.78-24.92,8.93-4.45,1.12-8.95,2.07-13.48,2.83-4.35.73-8.81,1.88-13.12.72-2.15-.58-1.88-3.65-.15-4.51,3.66-1.82,8.19-1.72,12.2-2.37,3.88-.63,7.75-1.4,11.57-2.31,7.83-1.86,15.62-4.21,22.9-7.68,13.77-6.58,27.71-20.02,25.33-36.72-1.05-7.4-5.1-13.84-11.74-17.37-6.73-3.58-12.76-7.47-19.08-11.76-6.57-4.45-13.87-7.31-20.99-10.75-4.32-2.09-9.37-4.43-12.78-8.04-1.41,4.35-3.41,8.24-3.8,13.06-.47,5.95,1.02,11.36,4.84,16,3.37,4.09,7.84,6.99,12.53,9.37,3.67,1.86,7.84,2.53,10.06,6.14.63,1.02-.3,2.24-1.29,2.46-4.84,1.08-11.34-3.2-15.74-6.21-9.08-.28-18.16,1.34-26.19,5.87-4.88,2.76-9.17,6.65-12.32,11.3-3.38,4.98-3.95,11.93-7.87,16.37-1.42,1.61-4.27,1.29-4.67-1.07-1.06-6.22,2.63-13.79,5.95-18.91,3.55-5.47,9.1-9.69,14.77-12.78,7.39-4.02,15.84-6.08,24.15-5.56-1.5-1.4-2.87-2.93-4.09-4.57.66,1.22,1.5,2.37,2.46,3.42-2.39.36-4.92.24-7.42-.35-7.44-1.76-12.54-5.9-15.48-12.13-2.52,3.91-7.82,6.88-11.62,7.89-6.94,1.84-12.95-3.62-16.12-9.3-1.51,3.38-4.71,6.15-8.02,7.63-6.06,2.72-12.96.91-17.98-3.12-5.64-4.53-8.19-11.43-9.99-18.21-2.26-8.52-2.5-15.96.74-24.22Z"/>
        </g>
        <path class="cls-2" d="m259.38,32.99c.34-.86,1.58-.53,1.54.36-.48,10.46,2.12,22.89,7.23,32.08,2.65,4.77,7.26,8.34,12.88,8.33,5.86-.01,8.14-3.9,10.62-8.42.1-.19.24-.35.4-.47-1.97-6.08-2.53-12.74-2.77-18.96-.38-9.79.02-20.61,3.87-29.75.3-.71,1.25-.42,1.25.29.04,6.66-.77,13.27-.62,19.95.16,7.1,1.1,14.15,2.54,21.1,1.04,5.04,2.57,10.54,6.42,14.2,6.39,6.09,13.45-1.38,16.84-6.75.11-.18.24-.32.38-.45-1.65-8.65-.95-17.8-.14-26.47.48-5.15,1.16-10.31,2.17-15.38.72-3.58,1.13-8.57,4.1-10.97.46-.37,1.08-.09,1.22.45.73,2.89-.79,6.42-1.4,9.25-.72,3.32-1.29,6.68-1.7,10.05-.95,7.94-.99,15.93-.3,23.89.59,6.85,1.43,15.14,7.05,19.86,2.46,2.07,6.69,3.76,10.44,4.06-.29-.47-.57-.94-.84-1.43-4.36-8.14-4.57-24.76,3.79-30.83-.32-1.12,1.04-2.36,2.14-1.85,3.13,1.44,5.95,3.52,8.93,5.31,1.44-4.64,2.7-9.24,4.7-13.7,1.61-3.59,3.6-9.17,6.92-11.52,2.15-1.52,4.83.4,4.07,2.92-1.81,6.01-5.69,11.55-7.71,17.58-.77,2.3-1.71,4.83-2.63,7.47,2.68,1.22,5.41,2.34,8.11,3.51,8.09,3.49,15.02,8.05,22.37,12.84.26.17.52.32.78.49,1.96-4.3,2.88-9.13,3.72-13.7.91-4.96,1.04-10.37,3.73-14.75.08-.13.29-.1.34.03,2.77,6.55.29,15.07-1.2,21.71-.68,3.02-1.54,6.02-2.79,8.84,5.62,2.92,11.44,5.28,15.46,10.58,4.2,5.53,6.25,12.54,6.11,19.45-.34,16.4-12.94,29.52-26.67,36.75-7.82,4.11-16.38,6.78-24.92,8.93-4.45,1.12-8.95,2.07-13.48,2.83-4.35.73-8.81,1.88-13.12.72-2.15-.58-1.88-3.65-.15-4.51,3.66-1.82,8.19-1.72,12.2-2.37,3.88-.63,7.75-1.4,11.57-2.31,7.83-1.86,15.62-4.21,22.9-7.68,13.77-6.58,27.71-20.02,25.33-36.72-1.05-7.4-5.1-13.84-11.74-17.37-6.73-3.58-12.76-7.47-19.08-11.76-6.57-4.45-13.87-7.31-20.99-10.75-4.32-2.09-9.37-4.43-12.78-8.04-1.41,4.35-3.41,8.24-3.8,13.06-.47,5.95,1.02,11.36,4.84,16,3.37,4.09,7.84,6.99,12.53,9.37,3.67,1.86,7.84,2.53,10.06,6.14.63,1.02-.3,2.24-1.29,2.46-4.84,1.08-11.34-3.2-15.74-6.21-9.08-.28-18.16,1.34-26.19,5.87-4.88,2.76-9.17,6.65-12.32,11.3-3.38,4.98-3.95,11.93-7.87,16.37-1.42,1.61-4.27,1.29-4.67-1.07-1.06-6.22,2.63-13.79,5.95-18.91,3.55-5.47,9.1-9.69,14.77-12.78,7.39-4.02,15.84-6.08,24.15-5.56-1.5-1.4-2.87-2.93-4.09-4.57.66,1.22,1.5,2.37,2.46,3.42-2.39.36-4.92.24-7.42-.35-7.44-1.76-12.54-5.9-15.48-12.13-2.52,3.91-7.82,6.88-11.62,7.89-6.94,1.84-12.95-3.62-16.12-9.3-1.51,3.38-4.71,6.15-8.02,7.63-6.06,2.72-12.96.91-17.98-3.12-5.64-4.53-8.19-11.43-9.99-18.21-2.26-8.52-2.5-15.96.74-24.22Z"/>
      </g>
      <g>
        <g>
          <g>
            <path class="cls-4" d="m192.03,235.6c.93-.72,1.82-1.26,3.03-1.35,1.16-.09,3.22.99,4.97,1.41-.07-.76-.1-1.52-.11-2.28-.85-.49-1.73-.97-2.65-1.44-.03-.02-.06-.03-.09-.05-.56-.29-1.13-.57-1.72-.85-.08-.04-.16-.08-.25-.12-.61-.29-1.22-.58-1.86-.86,0,0-.02,0-.02-.01h0s0,0,0,0c-1.43,2.44-2.57,4.94-3.42,7.5.68-.72,1.38-1.38,2.12-1.95Z"/>
            <path class="cls-4" d="m416.77,299.76l-9.54,25.59-16.06-12.1c-.47.63-1.01,1.23-1.62,1.77-.69.61-1.4,1.05-2.16,1.41-.11,1.45-.26,2.91-.27,4.36-.02,1.37.5,2.97-.23,4.18-.16.27-.55.33-.77.1-1.03-1.07-.76-2.87-.72-4.28.04-1.29.18-2.51.46-3.73-.31.12-.63.23-.96.35-3.79,1.33-4.84,2.56-5.29,6.41-.08.67-1.02,1.1-1.4.38-1.34-2.56-.04-5.67,2.27-7.24.19-.13.39-.23.58-.34-.72,0-1.45-.06-2.16-.08-1.91-.06-3.81-.15-5.72-.19-.89-.02-.88-1.35,0-1.37,1.91-.05,3.81-.14,5.72-.19,1.52-.05,3.1-.3,4.48.39.19.09.28.29.28.49,1.18-.33,2.38-.62,3.47-1.23,1.04-.59,1.92-1.34,2.67-2.19l-31.13-23.45c5.6-2.29,10.75-4.84,15.42-7.63-2.5-.68-4.97-1.45-7.42-2.3-.14-.05-.25-.13-.35-.23-.08.12-.2.21-.37.19-1.26-.15-2.51-.17-3.77-.05-1.22.12-2.46.66-3.68.59-.27-.01-.47-.37-.24-.58,1.5-1.31,4.09-1.37,6.24-1.13-2.02-.57-3.9-1.71-5.91-2.38-2.21-.74-4.44-1.37-6.72-1.82-.37-.07-.29-.7.09-.66,2.31.26,5.06.64,7.64,1.4-.25-.28-.49-.55-.74-.81-1.28-1.34-2.44-2.74-3.61-4.17-.33-.41.18-.94.58-.58,1.39,1.22,2.76,2.41,4.05,3.74.88.9,2.01,1.8,2.66,2.91,1.08.51,2.07,1.12,2.91,1.87.23.21.11.51-.11.63.26.04.51.08.75.12,0,0,.02,0,.02.01-.02-1.68.26-3.76-.12-5.37-.12-.29-.23-.59-.31-.9-.52-1.11-1.35-1.23-2.83-1.79-2.32-.88-4.31-2.09-6.08-3.81-.51-.5.17-1.41.77-1,2.51,1.71,4.93,3.07,7.76,3.9-.03-.31-.06-.62-.1-.92-.25-2.07-.51-4.13-.68-6.21-.04-.56.88-.68.98-.13.37,2.05.64,4.11.92,6.18.04.28.08.57.13.85,1.53-1.72,3.06-3.44,4.6-5.16,1.37-1.54,2.7-3.5,4.45-4.61.31-.2.63.18.48.48-.93,1.86-2.76,3.37-4.16,4.9-1.58,1.73-3.15,3.45-4.73,5.18.18.15.3.39.3.61.08,3.56-.76,6.76,2.8,8.39.37.17.76.33,1.15.48.6-2.29,1.56-4.43,2.45-6.62.71-1.73,1.19-3.71,2.47-5.11.27-.3.83-.07.81.34-.09,2.08-1.35,4.11-2.14,6.01-.82,1.95-1.59,3.88-2.65,5.71,1.07.35,2.17.64,3.28.91,17.42-10.86,27.46-25.03,26.72-40.53-.96-20.29-20.08-36.57-49.36-45.11-.03.27-.06.54-.1.81h.02s-.09.5-.09.5c-.24,1.86-.46,3.72-.71,5.58-.4,3.02-2.07,9.54-4.24,17.3,4.05,1.26,7.73,2.66,11.03,4.15.95-.56,1.95-1.07,2.92-1.68.67-.42,1.22-.85,1.69-1.3-.9-1.05-1.66-2.27-2.46-3.35-1.24-1.66-2.43-3.35-3.62-5.05-.28-.41.37-.91.69-.53,1.33,1.59,2.63,3.19,3.9,4.83.77.99,1.68,1.98,2.42,3.04,2.47-3.47.36-7.67-.43-12.07-.13-.73.79-1.49,1.38-.8,1.59,1.86,2.52,4.65,2.65,7.38.8-1.06,1.83-1.95,3.01-2.54.92-.45,1.69.83.81,1.38-1.53.97-2.75,2.13-3.67,3.7-.09.16-.22.25-.35.3-.12.65-.27,1.28-.51,1.86-.04.1-.09.19-.14.28.02-.01.04-.03.06-.05,3.64-1.63,7.87-3.64,11.84-4.1.5-.06.6.66.24.89-2.65,1.67-6.15,2.71-9.37,3.57.77.09,1.54.28,2.41.63.63.26,1.31.57,1.94.96.04,0,.08.01.13.02.13-.55.88-.83,1.3-.22.1.15.19.31.29.45.93.13,1.85.22,2.79.24,1.23.02,2.52-.28,3.72.01.42.1.51.73.12.94-1.23.66-2.78.54-4.15.47-.51-.02-1.02-.07-1.52-.13.76,1.23,1.48,2.48,2.15,3.73.56,1.05-1,1.97-1.6.93-.74-1.27-1.46-2.58-2.12-3.92-1.12-.5-2.12-1.27-3.24-1.77-1.6-.72-3.74-1.4-5.49-1.56-.05,0-.07-.03-.1-.05-.37.55-.8,1.03-1.28,1.45-.06.1-.14.17-.24.21-1.35,1.1-3.01,1.79-4.6,2.56,10.9,5.27,17.08,11.62,17.35,17.18.62,13.04-30.66,33.5-81.08,35.9-27.53,1.31-49.87-3.29-64.6-9.85h0s0,0,0,0c-4.2-1.87-7.78-3.9-10.68-6-.04-.03-.09-.06-.13-.09-.45-.33-.89-.66-1.31-1-.03-.02-.05-.04-.07-.06-1.69-1.35-3.1-2.73-4.22-4.1-.07-.08-.14-.17-.21-.25-.22-.28-.42-.56-.62-.84-.02-.03-.05-.07-.08-.11-.76-.4-1.61-.65-2.54-.76-3.37,2.62-6.43,5.62-9.48,8.71-1.09,1.1-2.96.83-3.75-.48-.12-.21-.25-.41-.37-.62-.13,0-.26-.02-.38-.06-.44.18-.96.11-1.38-.38-.34-.4-.71-.78-1.07-1.17-1.34-1.38-2.81-2.56-4.43-3.55-.07.22-.14.44-.22.66-.23,1.15-.54,2.27-.95,3.35,1.06,2.82,2.5,5.53,4.29,8.12h0c1.11,1.61,2.35,3.17,3.72,4.68,0,0,0,0,0,0,.67.73,1.36,1.46,2.09,2.17.04.03.07.07.11.1.71.69,1.45,1.37,2.21,2.04.06.05.11.1.17.15.76.66,1.54,1.31,2.35,1.94.07.05.13.1.2.16.81.63,1.65,1.26,2.52,1.87.06.05.13.09.19.14.88.62,1.78,1.22,2.72,1.82.05.03.09.06.14.09.96.61,1.94,1.21,2.96,1.79,4.56,2.62,9.64,4.97,15.17,7.01-.3-1.03-.66-2.03-1.35-2.8-1.07-1.18-2.79-1.62-4.18-2.28-2.2-1.05-4.12-2.59-5.6-4.52-.2.03-.4,0-.6-.11-1.44-.83-2.96-1.71-4.14-2.88-.62-.61.17-1.52.89-1.16.88.44,1.71.95,2.56,1.45-.09-.49-.19-.99-.28-1.49-.12-.68-.13-1.42.71-1.49.29-.02.56.18.71.41.7,1.09.95,2.36.99,3.63,1.23,1.53,2.51,2.88,4.2,3.96.15.1.31.18.47.27-.43-.66-.76-1.42-1.02-2.01-.63-1.43-.86-2.81-.93-4.29-1.07-1.04-1.94-2.22-2.55-3.6-.3-.67.56-1.2.99-.58.63.91,1.35,1.74,2.16,2.47.04,0,.07.01.11.02.29-1.05.64-2.09,1.08-3.08.51-1.14,1.12-2.61,2.25-3.25.34-.19.83.05.81.46-.05,1.23-.87,2.38-1.34,3.5-.58,1.38-1.05,2.77-1.41,4.22-.08.32-.31.52-.58.6.3.96.69,1.91,1.13,2.79.35.71.97,1.43,1.4,2.18-.18-1.58-.28-3.18-.36-4.73-.04-.76,1.16-.91,1.33-.18.54,2.39,1.11,4.9,1.26,7.35,0,.14-.02.27-.07.38,1.61,1.23,1.99,2.79,2.43,4.59.69-2.09,1.18-4.18.82-6.13-.56-3.1-1.68-4.33-.63-7.51.2-.62,1.29-.55,1.2.16-.26,2.08.44,3.9.98,5.75.11-1.2.29-2.37,1.04-3.4.72-.99,1.76-1.6,2.19-2.79.45-1.25.31-2.67.23-3.98-.07-1.1,1.54-1.04,1.67,0,.09.73.16,1.47.15,2.2.1-.1.2-.21.3-.31.7-.72,1.38-1.48,2.2-2.07.78-.57,1.42.6.94,1.22-.61.78-1.41,1.41-2.13,2.08-.54.5-1.08.97-1.67,1.41-.18.52-.43,1.01-.79,1.48-.68.88-1.63,1.46-2.28,2.38-.22.32-.42.64-.6.97.31-.21.64-.39,1-.55.92-.4,1.88-.42,2.83-.66,1.06-.26,1.6-.87,2.4-1.53.38-.31.96-.22,1.11.29.45,1.6-1.2,2.6-2.59,2.87-.53.1-1.05.14-1.56.19.64.39,1.28.79,1.94,1.14,1.03.55,2.22.83,3.2,1.45.51.32.36,1.3-.33,1.23-1.19-.11-2.36-.79-3.38-1.38-1.07-.62-2.02-1.3-2.81-2.22-.35.09-.69.22-1.03.41-.57.32-1.1.75-1.63,1.16.14.72.21,1.45.14,2.22-.08.95-.27,1.94-.53,2.95.47-.23,1-.38,1.57-.45.08-.01.15-.01.23-.02.34-.34.74-.64,1.1-.92.72-.56,1.45-1.05,2.28-1.45.67-.32,1.19.57.58.99-.64.45-1.28.91-1.89,1.4.08,0,.16.01.24.02,1.05.08,2.09-.02,3.12.06.55.04.9.86.31,1.14-1.56.75-3.44.17-5.17.09-.14.1-.29.18-.46.24-.23.08-.45-.03-.59-.21-.64.08-1.25.29-1.79.73-.05.17-.11.33-.16.5,18.2,6.21,40.94,9.24,66.01,8.04,13.32-.63,25.87-2.39,37.33-5.08l49.8,37.53-50.04-2.16-2.62,16.02,90.05,3.89,18.07-48.46-23.8-3.19Z"/>
            <path class="cls-4" d="m220.22,217.43c.81.62,1.6,1.26,2.36,1.9.03.02.06.05.09.07,1.07.91,2.08,1.85,3.04,2.8.27-.12.56-.2.85-.24.15-.12.29-.23.46-.35.59-.4,1.34.03,1.54.63.03.09.07.17.1.26.36.33.58.8.58,1.43,1.63.93,3.26,1.86,4.89,2.79,4.21-2.11,8.99-4.11,14.3-5.9l2.72-18.36c.08-.77.17-1.54.26-2.3.16-1.35.51-3.47.98-6.13-16.31,4.12-30.28,10.16-41,17.56,3.08,1.75,5.94,3.62,8.54,5.61.09.07.19.14.28.22Z"/>
          </g>
          <g>
            <path class="cls-1" d="m232.63,256.94c-2.76-.69-3.47-.97-5.39-.37-.18.47-.73.63-1.11.39-1.16.44-2.31.94-3.56,1.07-2.53.25-3.62-.76-5.63-1.98-.59-.7-1.28-1.25-2.05-1.65.02.03.05.07.08.11.2.28.4.56.62.84.07.08.14.17.21.25,1.12,1.37,2.53,2.75,4.22,4.1.03.02.05.04.07.06.42.33.86.67,1.31,1,.04.03.09.06.13.09,2.9,2.1,6.48,4.13,10.68,6,0,0,0,0,0,0h0c2.03-3.37,3.5-6.87,4.4-10.47-1.46,1.32-2.18,1.01-3.99.56Z"/>
            <path class="cls-1" d="m193.33,230.05s.02,0,.02.01c.63.28,1.25.57,1.86.86.08.04.16.08.25.12,0,0,0,0,0,0,.58.28,1.16.56,1.71.85,0,0,0,0,0,0,.03.02.06.03.09.05.92.47,1.8.96,2.65,1.44-.01-1.2.04-2.39.18-3.59.13-1.1,1.12-1.77,2.17-1.24,1.53.76,3.08,1.32,4.51,2.29.27.18.51.39.77.58,1.77-1.52,3.54-3.03,5.31-4.55.45-.39,1.03-.21,1.24.33.31.79.65,1.42.99,1.92.1-.08.24-.13.41-.07.87.29,1.87.54,2.57,1.16.12.11.24.23.36.36,1.53-.45,3.05-2.06,4.25-3.63.21-.69.47-1.36.79-2,.06-.96.61-1.73,1.37-2.13.24-.25.54-.44.87-.58-.96-.95-1.98-1.89-3.04-2.8-.03-.03-.06-.05-.09-.07-.76-.65-1.55-1.28-2.36-1.9-.09-.07-.19-.14-.28-.22-2.6-1.98-5.46-3.86-8.54-5.61-4.68-2.66-9.89-5.05-15.54-7.12.21,1.47-.14,3-1.22,4.23-.13.15-.27.28-.42.41.63.25,1.24.56,1.86.97.94.63,2.71,1.71,2.64,2.99-.02.28-.24.42-.51.39-1.05-.15-1.95-1.59-2.82-2.19-.71-.49-1.51-.92-2.32-1.3-.31.22-.6.45-.86.72-.02.21-.15.42-.38.47-.09.14-.17.3-.24.46-.47,1.21,0,2.86.07,4.12.08,1.68-.02,3.01-1.19,4.26-.48.52-1.38-.17-.98-.76,1.38-2.01.51-4.32.6-6.52-.83.92-1.68,1.82-2.6,2.65-1.13,1.04-2.45,2.5-3.95,2.94-.37.11-.68-.32-.49-.64.78-1.38,2.51-2.42,3.71-3.44,1.2-1.02,2.4-2.04,3.6-3.06.03-.08.05-.16.08-.23-1.59-.29-3.19-.5-4.8-.59-1.56-.09-3.22.19-4.73-.19-.44-.11-.36-.68,0-.82,2.85-1.12,7.04-.19,10.12.64.18-.21.4-.41.63-.63,0,0-.01,0-.02,0-.38-.16-.38-.82.11-.79.24.02.47.06.7.1.84-.7,1.5-1.19,1.91-2.41.25-.75.25-1.54.06-2.28-6.41-2.26-13.35-4.13-20.73-5.57.9,8.58,1.69,15.15,2.98,25.88,6.21,1.63,11.82,3.6,16.67,5.76h0Z"/>
            <path class="cls-1" d="m210.9,283.3c-.93-.59-1.84-1.2-2.72-1.82-.06-.05-.13-.09-.19-.14-.87-.61-1.7-1.23-2.52-1.87-.07-.05-.13-.1-.2-.16-.81-.64-1.6-1.28-2.35-1.94-.06-.05-.11-.1-.17-.15-.76-.67-1.5-1.35-2.21-2.04-.04-.03-.07-.07-.11-.1-.72-.71-1.42-1.43-2.09-2.17,0,0,0,0,0,0-1.37-1.51-2.61-3.08-3.72-4.68h0c-14.06,7.74-35.57,14.21-62.59,15.49-50.42,2.4-83.5-15.01-84.12-28.04-.14-3,1.5-6.5,4.69-10.11-1.46-.66-3.07-.83-4.64-.38-1.81.52-2.66,1.69-3.94,2.94-.35.34-.94,0-.81-.47.87-3.17,4.86-4.29,7.99-3.63-1.92-2.26-3.64-4.63-7.25-4.13-2.43.34-3.74,1.52-6.2.84-1.02-.28-.58-1.75.43-1.57,1.76.32,3.18,0,4.51-.34-.21-.14-.41-.28-.58-.42-1.2-.95-1.8-2.16-2.22-3.61-.16-.54.62-.71.82-.23.46,1.1,1.52,2.07,2.55,2.67.85.49,1.9.57,2.7,1.09.93.06,1.9.36,3,1.13.69.49,1.26,1.08,1.79,1.7-.11-.95-.11-1.93-.12-2.84,0-.89-.12-1.62-.3-2.27-.02-.03-.02-.06-.03-.1-.49-1.64-1.52-2.71-2.97-4.15-.97-.96-1.54-1.73-1.61-3.1-.03-.7,1-.97,1.33-.36.72,1.35,1.9,2.34,2.95,3.4-.11-.72-.24-1.45-.42-2.22-.24-1.06-.41-2.24.69-2.78.31-.15.66.03.68.39.04.79-.1,1.46.07,2.27.17.8.39,1.58.49,2.39.09.7.13,1.39.11,2.08.1.2.21.39.28.61.38,1.06.44,2.15.41,3.22.91-2.08,2.29-3.98,4.14-5.06.71-.42,1.27.5.82,1.06-1.07,1.33-2.29,2.43-3.2,3.9-.73,1.18-1.3,2.47-1.74,3.79.14,1.03.52,2.02,1.38,2.94,4.9-5.03,12.74-10.17,22.9-14.37-1.05-8.45-2.49-16.23-3.04-24.72-31.46,11.07-51.21,30.04-50.19,51.58.95,20.02,19.56,36.13,48.18,44.75l-13.64,12.48-34.59-8.54c-.01.12-.02.23-.04.35-.28,1.35-1.27,2.38-2.28,3.23-.15.13-.31.24-.48.36.03.72.29,1.45.7,2.11.54.88,1.5,1.54,1.77,2.54.07.25-.18.54-.45.45-1.25-.43-2.29-2.14-2.74-3.32-.14-.36-.23-.73-.28-1.1-.41.27-.82.55-1.19.89-1.44,1.31-1.9,2.7-2.32,4.52-.14.61-1.2.67-1.3,0-.23-1.59.18-3.02,1.05-4.24-.29.08-.59.15-.9.19-.77.11-1.96.38-2.51-.29-.12-.15-.16-.39,0-.53.57-.49,1.31-.26,2.03-.31.94-.07,1.91-.28,2.82-.56.35-.28.72-.53,1.09-.8.67-.49,1.15-.78,1.51-1.08.11-.27.24-.53.41-.77.07-.1.16-.15.25-.18.03-.09.05-.18.08-.29-.38.02-.75.02-1.13.03-1.15.04-2.34.18-3.49.03-.47-.06-.65-.75-.12-.88,1.02-.25,2.1-.27,3.15-.34.55-.04,1.14-.14,1.73-.15,0-.09,0-.18,0-.28,0-.08,0-.14,0-.21l-7.57-1.87-13.12,19.44,38.41,9.49-26.91,24.61,19.73,8.99,30.46-27.85,11.1,2.74c1.17-3.25-3.54-7.06-5.94-9.79-.39-.21-.79-.37-1.21-.49-.1.15-.25.25-.47.24-2.6-.11-3.84,1.08-5.26,3.02-.45.62-.83,1.16-1.5,1.58-.4.26-.84.48-1.29.69-.21,1.35-1.04,2.67-1.59,3.87-.5,1.1-2.2.14-1.64-.96.34-.66.64-1.42,1.02-2.13-1.17.32-2.37.52-3.49.65-1.03.12-1.24-1.6-.24-1.79,1.73-.33,3.44-.67,5.09-1.34,1.65-.67,2.14-1.98,3.25-3.18.34-.37.71-.67,1.1-.92-2.09.17-4.19.47-5.97.19-2.34-.37-4.43-1.13-6.29-2.58-.48-.38.04-1.23.6-1.02,2.36.86,4.52,1.83,7.05,2.09.31.03.61.05.92.06-.61-.46-1.13-1.05-1.64-1.66-1.38-1.65-2.96-2.8-4.83-3.84-.67-.37-.21-1.47.52-1.23,1.63.53,3.09,1.44,4.36,2.58.09.08.17.16.25.24-.29-1.61-.32-3.31-.26-4.91.02-.64.99-.65,1,0,.03,1.93.42,3.7.82,5.58.06.29-.05.52-.22.67.7.7,1.42,1.35,2.38,1.83.26.13.38.38.4.64.98-.08,1.97-.18,2.97-.18,1.05,0,1.99.11,2.83.35-.78-1.61-1.16-3.35-.86-5.15.17-1,.54-1.95.98-2.88-.5-.94-.84-2-1.16-3-.44-1.34-.95-2.72-.83-4.14.05-.57.77-.82,1.09-.3.71,1.13.96,2.45,1.4,3.7.19.54.41,1.07.63,1.6.62-1.11,1.23-2.23,1.64-3.4.88-2.54,1.27-4.58,3.18-6.55.85-.87,2.05.41,1.31,1.31-1.73,2.11-2.45,4.85-3.4,7.44,1.04-.7,2.06-1.44,3.01-2.27,1.22-1.07,2.19-2.49,3.51-3.41.69-.47,1.3.42,1.03,1.03-.69,1.56-2.41,2.83-3.74,3.84-1.41,1.07-2.92,1.94-4.55,2.6-.1.21-.19.42-.29.62-2.06,3.99-2.72,7.11.51,11.01,1,1.2,2.3,2.11,3.32,3.29.43.5.84,1.06,1.19,1.66-.02-.95.07-1.88.29-2.74-.12-.06-.22-.15-.24-.32-.17-1.21.19-2.4.4-3.59.25-1.46.54-2.91.75-4.37.06-.43.68-.28.71.1.13,1.57.31,3.69.02,5.54.65-.42,1.39-.62,2.1-1.22,1.3-1.1,2.17-2.83,3.37-4.05.62-.64,1.66.18,1.22.94-1.06,1.83-2.38,3.68-3.99,5.06-1.37,1.18-2.36,2.1-2.81,3.97-.32,1.33-.53,2.62-.6,3.95.43-.65,1.06-1.16,1.92-1.54.26-.12.54-.22.81-.31-.06-.81.89-1.46,1.35-2.06.69-.9,1.3-1.89,1.87-2.86.31-.54,1.25-.18,1.03.43-.42,1.18-.96,2.23-1.7,3.24-.12.17-.25.37-.4.58.19-.06.39-.12.57-.2,1.63-.62,3.16-1.5,4.75-2.21.98-.43,1.75.83.85,1.45-1.59,1.1-3.25,1.99-5.08,2.63-1.75.61-4.92.89-5.81,2.86l34,8.4,13.12-19.44-40.76-10.07,14.34-13.11c11.67,1.59,24.33,2.15,37.65,1.51,33.45-1.59,62.04-10.25,80.81-23.05,0,0,0,0,0,0-1.01-.58-2-1.18-2.96-1.79-.05-.03-.09-.06-.14-.09Z"/>
          </g>
        </g>
        <g>
          <path class="cls-1" d="m210.32,193.15c2.93-4.99,5.87-9.98,8.79-14.97.89-1.53-.23-3.85-2.13-3.71-2.68.19-5.37.37-8.05.56-.64.04-1.18.26-1.6.59-.32,0-.65.03-.97.12-1.09.3-2.09,1.45-2,2.63.04.64.22,1.22.54,1.71.91,3.88,1.56,8.07,1.62,12.04.03,2.02,2.77,2.8,3.81,1.03Z"/>
          <path class="cls-1" d="m237.19,233.43c-1.41-1.02-3.18-.3-4.59.31-1.32.57-2.39,1.28-3.45,2.26-1.58,1.46.06,4.57,2.19,3.76,1.15-.44,2.28-.94,3.43-1.38,1.53-.58,2.7-1.02,3.36-2.63.37-.89-.27-1.83-.95-2.33Z"/>
          <path class="cls-1" d="m222.87,298.7c-1.65-2.51-3.2-5.15-5.05-7.51-.76-.97-1.52-1.93-2.7-1.98-.3-.37-.96-.37-1.21.23-1.88,4.64-4.24,9.45-3.58,14.6-.66,1.09.05,2.9,1.55,2.32.12-.05.24-.1.36-.15h0s0,0,.01,0c.23-.1.46-.2.67-.31.55.12,1.14.09,1.71-.14,2.55-1.08,4.95-2.37,7.36-3.73,1.09-.62,1.58-2.23.87-3.31Z"/>
          <path class="cls-1" d="m199.87,243.34c-1.81.8-3.68,1.41-5.61,1.84-1.64.36-3.26.16-4.26,1.68-.29.44-.22,1.22.2,1.58,1.57,1.32,3.48.46,5.27-.1,2.03-.64,3.99-1.49,5.86-2.49,1.68-.9.2-3.24-1.46-2.5Z"/>
        </g>
        <g>
          <path class="cls-4" d="m230.43,189.16c-.03-.46-.21-.95-.59-1.41-.89-1.08-2.22-1.45-3.58-1.39-.28.01-.53.08-.76.18-.17.05-.32.13-.46.24-.64.45-1,1.2-.97,1.96-.27.68-.54,1.35-.82,2.03-.45,1.12-1.06,2.27-1.28,3.46-.23,1.29,1.05,2.52,2.31,1.78,2.12-1.26,4.48-2.02,6.57-3.37,1.46-.94,1.07-2.88-.42-3.48Zm-4.13,2.34s-.08.06-.13.09c.01-.05.02-.1.04-.15.03.02.06.04.09.06Z"/>
          <path class="cls-4" d="m184.97,195.26c2.25,1.08,4.52,2.42,6.92,3.11,1.76.5,2.88-2.07,1.25-2.97-2.19-1.21-4.73-1.87-7.1-2.69-1.48-.52-2.51,1.87-1.08,2.56Z"/>
          <path class="cls-4" d="m190.25,181.26c-1.28-1.99-3.01-3.74-4.55-5.54-1.31-1.53-3.75.44-2.75,2.12,1.22,2.06,2.34,4.22,3.83,6.09,1.56,1.96,4.81-.59,3.47-2.68Z"/>
          <path class="cls-4" d="m238.73,250.33c-3.02-1.97-6.93-2.85-10.37-3.78-2.07-.56-3.35,2.38-1.46,3.47,3.08,1.78,6.47,3.94,9.99,4.7,2.66.57,4.17-2.88,1.85-4.39Z"/>
          <path class="cls-4" d="m209.68,233.78c-1.23-.88-3.03.89-2.12,2.12,1.25,1.69,2.28,3.59,3.27,5.44,1.36,2.54,5.34.24,3.88-2.27-1.29-2.21-2.96-3.81-5.03-5.29Z"/>
          <path class="cls-4" d="m191.16,242.38c1.85-.47,1.85-3.27,0-3.74-1.95-.5-4.24-.02-6.23.12-2.25.16-2.25,3.34,0,3.5,1.99.14,4.28.62,6.23.12Z"/>
          <path class="cls-4" d="m197.74,299.75c-1.01.69-1.83,1.67-2.46,2.78-.06.06-.13.11-.19.18-2.53,2.86-4.95,5.8-7.38,8.74-.81.98-.08,2.65,1.31,2.26,2.41-.68,7.02-.98,8.22-3.58.57-1.22.63-2.72,1.09-4,.55-1.53,1.46-2.84,2.05-4.34.57-1.44-1.4-2.89-2.64-2.03Z"/>
          <path class="cls-4" d="m236.34,306.7c-2.48-.97-3.69-2.74-5.11-4.85-.36-.53-.9-.8-1.46-.85-.94-.7-2.6.02-2.2,1.45.03.12.07.25.1.37,0,.16.03.32.09.5.05.16.12.31.18.47.52,1.9,1.05,3.8,1.57,5.7.46,1.66.72,3.97,2.38,4.79,0,.04-.01.09-.02.13-.05.8,1.09,1.28,1.62.67,1.5-1.71,2.72-3.69,3.99-5.58.75-1.12-.08-2.38-1.14-2.8Z"/>
          <path class="cls-4" d="m262.46,233.24c-5.65.67-11.26,2.15-16.34,4.73-1.19.6-1.24,2.25-.53,3.2-.06.1-.13.2-.18.31-.62,1.44-.31,3.83,1.67,4.11,2.79.4,6.82.84,9.45-.43,3.03-1.46,5.53-4.83,7.9-7.15,1.59-1.56.51-5.08-1.98-4.78Z"/>
        </g>
      </g>
    </g>
  </g>
</svg>